# Blender v2.79 (sub 0) OBJ File: ''
# www.blender.org
mtllib blender_scriptM_3_002.mtl
o M_3_002
v 87.867500 38.602001 -0.153994
v 87.867500 41.318901 -0.153993
v 87.867500 41.391800 -0.178193
v 87.867500 38.529202 -0.178194
v 87.867500 38.504902 -0.251094
v 87.867500 41.416100 -0.251093
v 87.867500 41.416100 -0.609793
v 87.867500 38.504902 -0.564894
v 87.867500 38.529202 -0.637794
v 87.867500 40.281799 -0.662093
v 87.867500 41.377201 -0.679293
v 87.867500 40.308701 -0.681493
v 87.867500 41.260700 -0.738293
v 87.867500 40.281799 -0.709893
v 87.867500 39.477798 -1.032694
v 87.867500 40.280300 -1.080493
v 87.867500 39.421700 -1.072294
v 87.867500 39.403000 -1.131294
v 87.867500 40.230999 -1.119393
v 87.867500 40.280300 -1.158193
v 87.867500 39.421700 -1.196294
v 87.867500 41.294998 -1.522893
v 87.867500 39.477798 -1.235894
v 87.867500 40.278801 -1.516893
v 87.867500 40.302700 -1.545293
v 87.867500 41.385799 -1.578893
v 87.867500 40.280300 -1.564693
v 87.867500 38.602001 -1.564694
v 87.867500 38.529202 -1.588994
v 87.867500 41.416100 -1.660393
v 87.867500 38.504902 -1.661894
v 87.867500 41.416100 -1.975693
v 87.867500 38.504902 -1.975694
v 87.867500 41.391800 -2.048593
v 87.867500 38.529202 -2.048594
v 87.867500 41.318901 -2.072793
v 87.867500 38.602001 -2.072794
v 87.867500 38.602001 -0.662094
v 87.926598 40.280300 -1.564693
v 87.926598 38.602001 -1.564694
v 87.926598 38.529202 -1.588994
v 87.926598 41.385799 -1.578893
v 87.926598 41.416100 -1.660393
v 87.926598 38.504902 -1.661894
v 87.926598 41.416100 -1.975693
v 87.926598 38.504902 -1.975694
v 87.926598 38.529202 -2.048594
v 87.926598 41.391800 -2.048593
v 87.926598 38.602001 -2.072794
v 87.926598 41.318901 -2.072793
v 87.926598 40.302700 -1.545293
v 87.926598 41.294998 -1.522893
v 87.926598 40.278801 -1.516893
v 87.926598 39.477798 -1.235894
v 87.926598 39.421700 -1.196294
v 87.926598 40.280300 -1.158193
v 87.926598 39.403000 -1.131294
v 87.926598 40.230999 -1.119393
v 87.926598 40.280300 -1.080493
v 87.926598 39.421700 -1.072294
v 87.926598 39.477798 -1.032694
v 87.926598 41.260700 -0.738293
v 87.926598 40.281799 -0.709893
v 87.926598 40.308701 -0.681493
v 87.926598 41.377201 -0.679293
v 87.926598 40.281799 -0.662093
v 87.926598 41.416100 -0.609793
v 87.926598 38.529202 -0.637794
v 87.926598 38.504902 -0.564894
v 87.926598 41.416100 -0.251093
v 87.926598 38.504902 -0.251094
v 87.926598 41.391800 -0.178193
v 87.926598 38.529202 -0.178194
v 87.926598 41.318901 -0.153993
v 87.926598 38.602001 -0.153994
v 87.926598 38.602001 -0.662094
vt 0.000000 0.000000
vt 0.000000 0.000000
vt 0.000000 0.000000
vt 0.000000 0.000000
vt 0.000000 0.000000
vt 0.000000 0.000000
vt 0.000000 0.000000
vt 0.000000 0.000000
vt 0.000000 0.000000
vt 0.000000 0.000000
vt 0.000000 0.000000
vt 0.000000 0.000000
vt 0.000000 0.000000
vt 0.000000 0.000000
vt 0.000000 0.000000
vt 0.000000 0.000000
vt 0.000000 0.000000
vt 0.000000 0.000000
vt 0.000000 0.000000
vt 0.000000 0.000000
vt 0.000000 0.000000
vt 0.000000 0.000000
vt 0.000000 0.000000
vt 0.000000 0.000000
vt 0.000000 0.000000
vt 0.000000 0.000000
vt 0.000000 0.000000
vt 0.000000 0.000000
vt 0.000000 0.000000
vt 0.000000 0.000000
vt 0.000000 0.000000
vt 0.000000 0.000000
vt 0.000000 0.000000
vt 0.000000 0.000000
vt 0.000000 0.000000
vt 0.000000 0.000000
vt 0.000000 0.000000
vt 0.000000 0.000000
vt 0.000000 0.000000
vt 0.000000 0.000000
vt 0.000000 0.000000
vt 0.000000 0.000000
vt 0.000000 0.000000
vt 0.000000 0.000000
vt 0.000000 0.000000
vt 0.000000 0.000000
vt 0.000000 0.000000
vt 0.000000 0.000000
vt 0.000000 0.000000
vt 0.000000 0.000000
vt 0.000000 0.000000
vt 0.000000 0.000000
vt 0.000000 0.000000
vt 0.000000 0.000000
vt 0.000000 0.000000
vt 0.000000 0.000000
vt 0.000000 0.000000
vt 0.000000 0.000000
vt 0.000000 0.000000
vt 0.000000 0.000000
vt 0.000000 0.000000
vt 0.000000 0.000000
vt 0.000000 0.000000
vt 0.000000 0.000000
vt 0.000000 0.000000
vt 0.000000 0.000000
vt 0.000000 0.000000
vt 0.000000 0.000000
vt 0.000000 0.000000
vt 0.000000 0.000000
vt 0.000000 0.000000
vt 0.000000 0.000000
vt 0.000000 0.000000
vt 0.000000 0.000000
vt 0.000000 0.000000
vt 0.000000 0.000000
vn -1.0000 -0.0000 0.0000
vn 1.0000 0.0000 0.0000
vn -0.0000 -0.3161 -0.9487
vn 0.0000 -0.1603 -0.9871
vn 0.0000 -0.9871 -0.1602
vn 0.0000 -0.9487 -0.3162
vn 0.0000 -0.9871 0.1602
vn 0.0000 -0.9487 0.3162
vn 0.0000 -0.3167 0.9485
vn 0.0000 -0.1600 0.9871
vn 0.0000 -0.0000 1.0000
vn 0.0000 -0.6547 0.7559
vn 0.0000 -0.7651 -0.6439
vn 0.0000 -0.4586 -0.8887
vn 0.0000 -0.3310 -0.9436
vn -0.0000 -0.5771 -0.8167
vn 0.0000 -0.9610 -0.2765
vn 0.0000 -0.9534 0.3017
vn 0.0000 -0.5771 0.8167
vn -0.0000 -0.4782 0.8783
vn 0.0000 -0.5623 0.8270
vn 0.0000 -0.7260 0.6877
vn -0.0000 -0.5854 -0.8107
vn 0.0000 -0.1600 -0.9871
vn 0.0000 0.0000 -1.0000
vn 0.0000 -0.3167 -0.9485
vn 0.0000 -0.3161 0.9487
vn 0.0000 -0.1603 0.9871
vn 0.0000 0.1602 0.9871
vn -0.0000 0.3161 0.9487
vn 0.0000 0.9871 0.1602
vn 0.0000 0.9487 0.3162
vn 0.0000 0.9676 -0.2524
vn 0.0000 0.8726 -0.4884
vn 0.0000 0.3915 -0.9202
vn 0.0000 0.4518 -0.8921
vn 0.0000 0.4808 -0.8768
vn -0.0000 0.6189 -0.7855
vn -0.0000 0.6190 0.7854
vn 0.0000 0.4846 0.8747
vn 0.0000 0.4342 0.9008
vn 0.0000 0.5250 0.8511
vn 0.0000 0.9842 0.1770
vn 0.0000 0.9373 0.3484
vn 0.0000 0.9871 -0.1602
vn 0.0000 0.9487 -0.3162
vn 0.0000 0.1602 -0.9871
vn 0.0000 0.3161 -0.9487
usemtl wire_087224198
s 1
f 1/1/1 2/2/1 3/3/1 4/4/1
f 5/5/1 4/4/1 3/3/1 6/6/1
f 5/5/1 6/6/1 7/7/1 8/8/1
f 9/9/1 8/8/1 7/7/1 10/10/1
f 10/10/1 7/7/1 11/11/1 12/12/1
f 12/12/1 11/11/1 13/13/1 14/14/1
f 15/15/1 14/14/1 13/13/1 16/16/1
f 17/17/1 15/15/1 16/16/1 18/18/1
f 18/18/1 16/16/1 19/19/1 20/20/1
f 21/21/1 18/18/1 20/20/1 22/22/1
f 23/23/1 21/21/1 22/22/1 24/24/1
f 25/25/1 24/24/1 22/22/1 26/26/1
f 27/27/1 25/25/1 26/26/1 28/28/1
f 29/29/1 28/28/1 26/26/1 30/30/1
f 31/31/1 29/29/1 30/30/1 32/32/1
f 33/33/1 31/31/1 32/32/1 34/34/1
f 35/35/1 33/33/1 34/34/1 36/36/1
f 35/35/1 36/36/1 37/37/1
f 38/38/1 9/9/1 10/10/1
f 39/39/2 40/40/2 41/41/2 42/42/2
f 43/43/2 42/42/2 41/41/2 44/44/2
f 45/45/2 43/43/2 44/44/2 46/46/2
f 45/45/2 46/46/2 47/47/2 48/48/2
f 48/48/2 47/47/2 49/49/2 50/50/2
f 51/51/2 39/39/2 42/42/2 52/52/2
f 53/53/2 51/51/2 52/52/2 54/54/2
f 55/55/2 54/54/2 52/52/2 56/56/2
f 57/57/2 55/55/2 56/56/2 58/58/2
f 57/57/2 58/58/2 59/59/2 60/60/2
f 61/61/2 60/60/2 59/59/2 62/62/2
f 63/63/2 61/61/2 62/62/2 64/64/2
f 64/64/2 62/62/2 65/65/2 66/66/2
f 66/66/2 65/65/2 67/67/2 68/68/2
f 69/69/2 68/68/2 67/67/2 70/70/2
f 71/71/2 69/69/2 70/70/2 72/72/2
f 73/73/2 71/71/2 72/72/2 74/74/2
f 73/73/2 74/74/2 75/75/2
f 66/66/2 68/68/2 76/76/2
f 47/47/3 35/35/3 37/37/4 49/49/4
f 33/33/5 35/35/6 47/47/6 46/46/5
f 31/31/7 33/33/5 46/46/5 44/44/7
f 29/29/8 31/31/7 44/44/7 41/41/8
f 29/29/9 41/41/9 40/40/10 28/28/10
f 28/28/10 40/40/10 39/39/11 27/27/11
f 27/27/12 39/39/12 51/51/12 25/25/12
f 24/24/13 25/25/13 51/51/13 53/53/13
f 54/54/14 23/23/14 24/24/15 53/53/15
f 55/55/16 21/21/16 23/23/14 54/54/14
f 18/18/17 21/21/17 55/55/17 57/57/17
f 17/17/18 18/18/18 57/57/18 60/60/18
f 17/17/19 60/60/19 61/61/20 15/15/20
f 15/15/20 61/61/20 63/63/21 14/14/21
f 12/12/22 14/14/21 63/63/21 64/64/22
f 66/66/23 10/10/23 12/12/23 64/64/23
f 76/76/24 38/38/24 10/10/25 66/66/25
f 68/68/26 9/9/26 38/38/24 76/76/24
f 8/8/5 9/9/6 68/68/6 69/69/5
f 5/5/7 8/8/5 69/69/5 71/71/7
f 4/4/8 5/5/7 71/71/7 73/73/8
f 4/4/27 73/73/27 75/75/28 1/1/28
f 1/1/28 75/75/28 74/74/29 2/2/29
f 2/2/29 74/74/29 72/72/30 3/3/30
f 6/6/31 3/3/32 72/72/32 70/70/31
f 7/7/33 6/6/31 70/70/31 67/67/33
f 11/11/34 7/7/33 67/67/33 65/65/34
f 62/62/35 13/13/35 11/11/36 65/65/36
f 59/59/37 16/16/37 13/13/35 62/62/35
f 58/58/38 19/19/38 16/16/37 59/59/37
f 19/19/39 58/58/39 56/56/40 20/20/40
f 20/20/40 56/56/40 52/52/41 22/22/41
f 22/22/41 52/52/41 42/42/42 26/26/42
f 30/30/43 26/26/44 42/42/44 43/43/43
f 32/32/45 30/30/43 43/43/43 45/45/45
f 34/34/46 32/32/45 45/45/45 48/48/46
f 50/50/47 36/36/47 34/34/48 48/48/48
f 49/49/4 37/37/4 36/36/47 50/50/47
