# Blender v2.79 (sub 0) OBJ File: ''
# www.blender.org
mtllib blender_scriptsteklo_001.mtl
o steklo_001
v 70.714401 53.888405 -29.717390
v 54.189701 53.888905 -30.259590
v 70.429100 54.562103 -29.468491
v 70.641502 53.248302 -29.913191
v 70.427597 52.861004 -30.056490
v 69.857002 52.069305 -30.330692
v 69.179604 51.328304 -30.581293
v 68.930000 51.277702 -30.602592
v 55.781101 50.985905 -31.107492
v 67.072800 58.145603 -28.171091
v 52.032902 58.481205 -28.835491
v 64.209602 60.475204 -27.276390
v 62.107700 61.771603 -26.833191
v 60.613701 62.444504 -26.608591
v 58.027599 63.324104 -26.328190
v 54.001202 63.902405 -26.318790
v 49.145699 63.733204 -26.596891
v 49.209702 64.040009 -26.443890
v 49.386101 64.191605 -26.358690
v 70.714302 53.888397 29.684809
v 70.429100 54.562096 29.435909
v 54.189701 53.888897 30.227009
v 70.641502 53.248295 29.880610
v 70.427597 52.860996 30.024010
v 69.857002 52.069298 30.298107
v 69.179604 51.328297 30.548708
v 68.929901 51.277695 30.570108
v 55.781101 50.985897 31.075008
v 67.072701 58.145596 28.138510
v 52.032902 58.481197 28.802910
v 64.209602 60.475197 27.243809
v 62.107700 61.771595 26.800610
v 60.613701 62.444496 26.576010
v 58.027599 63.324097 26.295610
v 54.001202 63.902397 26.286209
v 49.145699 63.733196 26.564310
v 49.209702 64.039993 26.411310
v 49.386101 64.191589 26.326109
v 53.611198 49.666004 -31.601192
v 51.742500 53.670002 -30.466791
v 49.360401 58.231003 -29.125591
v 47.071098 62.496403 -27.342291
v 45.513100 65.348709 -25.818388
v 49.394901 65.134506 -25.822889
v 54.249298 64.837807 -25.855589
v 58.475399 64.244308 -25.925491
v 61.131001 63.462006 -26.154291
v 62.673000 62.598804 -26.440390
v 65.007301 61.130604 -26.959391
v 67.988800 58.729202 -27.893490
v 71.441597 54.935905 -29.301491
v 71.889297 54.058704 -29.616190
v 71.861000 53.311504 -29.841290
v 71.635002 52.591003 -30.109692
v 70.900597 51.577003 -30.479292
v 69.827301 50.402905 -30.937992
v 69.290604 50.189404 -31.021893
v 53.611198 49.665997 31.568607
v 51.742500 53.669994 30.434309
v 49.360401 58.230995 29.093010
v 47.070999 62.496395 27.309710
v 45.513100 65.348694 25.785812
v 49.394901 65.134491 25.790411
v 54.249298 64.837791 25.823011
v 58.475399 64.244293 25.892910
v 61.131001 63.461998 26.121710
v 62.673000 62.598797 26.407810
v 65.007301 61.130596 26.926809
v 67.988701 58.729195 27.860910
v 71.441597 54.935898 29.268909
v 71.889297 54.058697 29.583609
v 71.861000 53.311497 29.808710
v 71.635002 52.590996 30.077108
v 70.900597 51.576996 30.446707
v 69.827202 50.402897 30.905407
v 69.290497 50.189396 30.989408
v -84.908501 34.140697 17.500706
v -86.009102 34.097496 14.608806
v -86.181396 32.705894 13.960405
v -85.780800 32.299194 15.167006
v -85.337196 32.109596 16.924505
v -83.852097 32.205795 20.824205
v -86.217499 32.739296 13.871205
v -83.398300 32.458298 22.030306
v -83.144302 32.744495 22.671005
v -82.776604 34.287994 23.728106
v -82.981697 32.728798 23.100805
v -82.838501 32.494396 23.489706
v -82.138397 32.356297 25.181606
v -81.456902 34.387295 28.165506
v -80.904099 32.505096 27.899206
v -80.403999 34.385296 29.907906
v -79.598297 32.814095 30.071405
v -79.127197 34.396397 31.009806
v -78.189400 33.423397 31.334106
v -85.716003 35.605995 15.609906
v -84.548698 36.259296 18.093105
v -85.101601 36.916397 16.691505
v -84.420502 37.619396 17.511606
v -83.610603 38.000496 18.596207
v -81.759102 36.382195 24.690506
v -79.196701 38.198895 28.745707
v -80.370300 36.439697 28.485106
v -78.084000 38.172897 30.120106
v -79.333099 36.445496 29.999706
v -77.148300 38.121796 30.737206
v -78.266502 36.379898 30.869205
v -76.148300 37.995995 31.060005
v -77.865303 34.242596 31.488506
v -77.245903 33.925995 31.698406
v -76.935303 36.313095 31.383005
v -75.022598 37.552395 31.466505
v -74.283501 36.870697 31.719006
v -74.168503 36.259895 31.887306
v -74.308502 35.771397 31.937006
v -84.908501 34.140705 -17.533394
v -86.181396 32.705902 -13.992994
v -86.009102 34.097504 -14.641395
v -85.780800 32.299202 -15.199594
v -85.337196 32.109604 -16.957193
v -83.852097 32.205803 -20.856794
v -86.217499 32.739304 -13.903794
v -83.398300 32.458305 -22.062994
v -83.144302 32.744503 -22.703693
v -82.776604 34.288002 -23.760695
v -82.981697 32.728806 -23.133493
v -82.838501 32.494404 -23.522295
v -82.138397 32.356304 -25.214193
v -81.456902 34.387302 -28.198195
v -80.904099 32.505104 -27.931795
v -80.403999 34.385303 -29.940594
v -79.598297 32.814102 -30.103994
v -79.127098 34.396404 -31.042395
v -78.189400 33.423405 -31.366693
v -85.716003 35.606003 -15.642494
v -84.548698 36.259304 -18.125793
v -85.101601 36.916405 -16.724094
v -84.420502 37.619404 -17.544195
v -83.610603 38.000504 -18.628794
v -81.759102 36.382202 -24.723095
v -79.196701 38.198902 -28.778294
v -80.370300 36.439705 -28.517794
v -78.084000 38.172905 -30.152794
v -79.333000 36.445503 -30.032295
v -77.148300 38.121803 -30.769894
v -78.266502 36.379906 -30.901794
v -76.148300 37.996002 -31.092594
v -77.865303 34.242603 -31.521093
v -77.245796 33.926003 -31.731094
v -76.935303 36.313103 -31.415594
v -75.022499 37.552402 -31.499195
v -74.283401 36.870705 -31.751595
v -74.168503 36.259903 -31.919895
v -74.308502 35.771404 -31.969694
vt 0.000000 0.000000
vt 0.000000 0.000000
vt 0.000000 0.000000
vt 0.000000 0.000000
vt 0.000000 0.000000
vt 0.000000 0.000000
vt 0.000000 0.000000
vt 0.000000 0.000000
vt 0.000000 0.000000
vt 0.000000 0.000000
vt 0.000000 0.000000
vt 0.000000 0.000000
vt 0.000000 0.000000
vt 0.000000 0.000000
vt 0.000000 0.000000
vt 0.000000 0.000000
vt 0.000000 0.000000
vt 0.000000 0.000000
vt 0.000000 0.000000
vt 0.000000 0.000000
vt 0.000000 0.000000
vt 0.000000 0.000000
vt 0.000000 0.000000
vt 0.000000 0.000000
vt 0.000000 0.000000
vt 0.000000 0.000000
vt 0.000000 0.000000
vt 0.000000 0.000000
vt 0.000000 0.000000
vt 0.000000 0.000000
vt 0.000000 0.000000
vt 0.000000 0.000000
vt 0.000000 0.000000
vt 0.000000 0.000000
vt 0.000000 0.000000
vt 0.000000 0.000000
vt 0.000000 0.000000
vt 0.000000 0.000000
vt 0.000000 0.000000
vt 0.000000 0.000000
vt 0.000000 0.000000
vt 0.000000 0.000000
vt 0.000000 0.000000
vt 0.000000 0.000000
vt 0.000000 0.000000
vt 0.000000 0.000000
vt 0.000000 0.000000
vt 0.000000 0.000000
vt 0.000000 0.000000
vt 0.000000 0.000000
vt 0.000000 0.000000
vt 0.000000 0.000000
vt 0.000000 0.000000
vt 0.000000 0.000000
vt 0.000000 0.000000
vt 0.000000 0.000000
vt 0.000000 0.000000
vt 0.000000 0.000000
vt 0.000000 0.000000
vt 0.000000 0.000000
vt 0.000000 0.000000
vt 0.000000 0.000000
vt 0.000000 0.000000
vt 0.000000 0.000000
vt 0.000000 0.000000
vt 0.000000 0.000000
vt 0.000000 0.000000
vt 0.000000 0.000000
vt 0.000000 0.000000
vt 0.000000 0.000000
vt 0.000000 0.000000
vt 0.000000 0.000000
vt 0.000000 0.000000
vt 0.000000 0.000000
vt 0.000000 0.000000
vt 0.000000 0.000000
vt 0.000000 0.000000
vt 0.000000 0.000000
vt 0.000000 0.000000
vt 0.000000 0.000000
vt 0.000000 0.000000
vt 0.000000 0.000000
vt 0.000000 0.000000
vt 0.000000 0.000000
vt 0.000000 0.000000
vt 0.000000 0.000000
vt 0.000000 0.000000
vt 0.000000 0.000000
vt 0.000000 0.000000
vt 0.000000 0.000000
vt 0.000000 0.000000
vt 0.000000 0.000000
vt 0.000000 0.000000
vt 0.000000 0.000000
vt 0.000000 0.000000
vt 0.000000 0.000000
vt 0.000000 0.000000
vt 0.000000 0.000000
vt 0.000000 0.000000
vt 0.000000 0.000000
vt 0.000000 0.000000
vt 0.000000 0.000000
vt 0.000000 0.000000
vt 0.000000 0.000000
vt 0.000000 0.000000
vt 0.000000 0.000000
vt 0.000000 0.000000
vt 0.000000 0.000000
vt 0.000000 0.000000
vt 0.000000 0.000000
vt 0.000000 0.000000
vt 0.000000 0.000000
vt 0.000000 0.000000
vt 0.000000 0.000000
vt 0.000000 0.000000
vt 0.000000 0.000000
vt 0.000000 0.000000
vt 0.000000 0.000000
vt 0.000000 0.000000
vt 0.000000 0.000000
vt 0.000000 0.000000
vt 0.000000 0.000000
vt 0.000000 0.000000
vt 0.000000 0.000000
vt 0.000000 0.000000
vt 0.000000 0.000000
vt 0.000000 0.000000
vt 0.000000 0.000000
vt 0.000000 0.000000
vt 0.000000 0.000000
vt 0.000000 0.000000
vt 0.000000 0.000000
vt 0.000000 0.000000
vt 0.000000 0.000000
vt 0.000000 0.000000
vt 0.000000 0.000000
vt 0.000000 0.000000
vt 0.000000 0.000000
vt 0.000000 0.000000
vt 0.000000 0.000000
vt 0.000000 0.000000
vt 0.000000 0.000000
vt 0.000000 0.000000
vt 0.000000 0.000000
vt 0.000000 0.000000
vt 0.000000 0.000000
vt 0.000000 0.000000
vt 0.000000 0.000000
vt 0.000000 0.000000
vt 0.000000 0.000000
vt 0.000000 0.000000
vt 0.000000 0.000000
vt 0.000000 0.000000
vt 0.000000 0.000000
vn 0.0311 0.3137 -0.9490
vn 0.0412 0.3034 -0.9520
vn 0.0306 0.3527 -0.9352
vn 0.0320 0.2997 -0.9535
vn 0.0323 0.3159 -0.9482
vn 0.0310 0.2967 -0.9545
vn 0.0295 0.2860 -0.9578
vn 0.0268 0.2710 -0.9622
vn 0.0294 0.2967 -0.9545
vn 0.0372 0.3628 -0.9311
vn 0.0473 0.3679 -0.9287
vn 0.0503 0.3991 -0.9155
vn 0.0511 0.3930 -0.9181
vn 0.0464 0.4033 -0.9139
vn 0.0472 0.4046 -0.9133
vn 0.0483 0.3994 -0.9155
vn 0.0371 0.4176 -0.9079
vn 0.0363 0.4369 -0.8988
vn 0.0365 0.4483 -0.8931
vn 0.0327 0.3134 0.9490
vn 0.0258 0.3520 0.9357
vn 0.0412 0.3034 0.9520
vn 0.0367 0.3016 0.9527
vn 0.0317 0.3135 0.9491
vn 0.0310 0.2967 0.9545
vn 0.0295 0.2860 0.9578
vn 0.0268 0.2710 0.9622
vn 0.0294 0.2967 0.9545
vn 0.0372 0.3628 0.9311
vn 0.0473 0.3679 0.9287
vn 0.0514 0.3954 0.9171
vn 0.0501 0.3899 0.9195
vn 0.0464 0.4033 0.9139
vn 0.0472 0.4046 0.9133
vn 0.0483 0.3994 0.9155
vn 0.0371 0.4176 0.9079
vn 0.0363 0.4369 0.8988
vn 0.0365 0.4483 0.8931
vn 0.0379 0.2956 -0.9546
vn 0.0563 0.3022 -0.9516
vn 0.0645 0.3507 -0.9343
vn 0.0671 0.3712 -0.9261
vn 0.0665 0.4206 -0.9048
vn 0.0529 0.4370 -0.8979
vn 0.0278 0.4597 -0.8876
vn 0.0228 0.4746 -0.8799
vn 0.0292 0.4791 -0.8773
vn 0.0311 0.4809 -0.8762
vn 0.0401 0.4308 -0.9016
vn 0.0403 0.4223 -0.9056
vn 0.0375 0.3819 -0.9235
vn 0.0357 0.3792 -0.9246
vn 0.0367 0.3832 -0.9229
vn 0.0401 0.3851 -0.9220
vn 0.0502 0.3893 -0.9197
vn 0.0519 0.3899 -0.9194
vn 0.0416 0.3878 -0.9208
vn 0.0390 0.3872 -0.9212
vn 0.0354 0.3773 -0.9254
vn 0.0345 0.3744 -0.9266
vn 0.0226 0.3529 -0.9354
vn 0.0239 0.3499 -0.9365
vn 0.0263 0.3459 -0.9379
vn 0.0298 0.3437 -0.9386
vn 0.0416 0.2806 -0.9589
vn 0.0391 0.3014 -0.9527
vn 0.0393 0.3128 -0.9490
vn 0.0313 0.3123 -0.9495
vn 0.0300 0.3243 -0.9455
vn 0.0169 0.3083 -0.9511
vn 0.0147 0.3261 -0.9452
vn 0.0062 0.3458 -0.9383
vn 0.0031 0.3536 -0.9354
vn 0.0175 0.3577 -0.9337
vn 0.0144 0.3544 -0.9350
vn 0.0379 0.2956 0.9546
vn 0.0563 0.3022 0.9516
vn 0.0645 0.3507 0.9343
vn 0.0671 0.3712 0.9261
vn 0.0665 0.4206 0.9048
vn 0.0529 0.4370 0.8979
vn 0.0278 0.4597 0.8876
vn 0.0228 0.4746 0.8799
vn 0.0292 0.4791 0.8773
vn 0.0311 0.4809 0.8762
vn 0.0401 0.4308 0.9016
vn 0.0403 0.4223 0.9056
vn 0.0375 0.3819 0.9235
vn 0.0357 0.3792 0.9246
vn 0.0367 0.3832 0.9229
vn 0.0401 0.3851 0.9220
vn 0.0534 0.3905 0.9190
vn 0.0390 0.3872 0.9212
vn 0.0428 0.3847 0.9220
vn 0.0400 0.3874 0.9210
vn 0.0354 0.3773 0.9254
vn 0.0345 0.3744 0.9266
vn 0.0239 0.3499 0.9365
vn 0.0357 0.3116 0.9495
vn 0.0391 0.3014 0.9527
vn 0.0300 0.3243 0.9455
vn 0.0169 0.3083 0.9511
vn 0.0147 0.3261 0.9452
vn 0.0062 0.3458 0.9383
vn 0.0031 0.3536 0.9354
vn 0.0175 0.3577 0.9337
vn 0.0144 0.3544 0.9350
vn 0.0407 0.2818 -0.9586
vn -0.9319 0.0566 0.3582
vn -0.9331 -0.0506 0.3560
vn -0.9359 -0.0315 0.3508
vn -0.9496 0.0583 0.3079
vn -0.9485 0.1136 0.2957
vn -0.9372 0.0726 0.3412
vn -0.9322 -0.0503 0.3584
vn -0.9380 0.0700 0.3394
vn -0.9422 0.0098 0.3349
vn -0.9393 0.1355 0.3152
vn -0.9380 -0.0156 0.3464
vn -0.9318 -0.0157 0.3626
vn -0.9343 -0.1161 0.3369
vn -0.9023 0.0552 0.4275
vn -0.8341 -0.3115 0.4553
vn -0.7783 0.0283 0.6273
vn -0.6935 -0.2994 0.6553
vn -0.5451 0.0361 0.8376
vn -0.4411 -0.1325 0.8876
vn -0.9234 0.0012 0.3838
vn -0.8930 0.1658 0.4184
vn -0.8907 0.1568 0.4267
vn -0.8277 0.2794 0.4867
vn -0.8502 0.3320 0.4086
vn -0.8764 0.3603 0.3194
vn -0.7678 0.4148 0.4883
vn -0.8072 0.4146 0.4203
vn -0.5962 0.3553 0.7199
vn -0.6777 0.3763 0.6317
vn -0.3745 0.2829 0.8830
vn -0.4681 0.3054 0.8292
vn -0.2569 0.2743 0.9267
vn -0.3169 0.0795 0.9451
vn -0.2545 0.0927 0.9626
vn -0.2608 0.2272 0.9383
vn -0.1845 0.2150 0.9590
vn -0.1671 0.2090 0.9635
vn -0.1726 0.1862 0.9672
vn -0.1745 0.1464 0.9737
vn -0.9319 0.0566 -0.3582
vn -0.9359 -0.0315 -0.3508
vn -0.9331 -0.0506 -0.3560
vn -0.9496 0.0582 -0.3079
vn -0.9485 0.1136 -0.2957
vn -0.9372 0.0727 -0.3412
vn -0.9322 -0.0503 -0.3584
vn -0.9380 0.0700 -0.3394
vn -0.9422 0.0098 -0.3349
vn -0.9393 0.1354 -0.3152
vn -0.9379 -0.0157 -0.3464
vn -0.9318 -0.0160 -0.3625
vn -0.9343 -0.1161 -0.3369
vn -0.9023 0.0552 -0.4275
vn -0.8341 -0.3115 -0.4553
vn -0.7783 0.0283 -0.6273
vn -0.6935 -0.2994 -0.6553
vn -0.5451 0.0361 -0.8376
vn -0.4411 -0.1325 -0.8876
vn -0.9234 0.0013 -0.3839
vn -0.8930 0.1658 -0.4184
vn -0.8907 0.1568 -0.4267
vn -0.8277 0.2794 -0.4867
vn -0.8502 0.3320 -0.4086
vn -0.8764 0.3603 -0.3194
vn -0.7678 0.4148 -0.4883
vn -0.8071 0.4146 -0.4203
vn -0.5962 0.3553 -0.7199
vn -0.6777 0.3763 -0.6317
vn -0.3745 0.2829 -0.8830
vn -0.4681 0.3054 -0.8292
vn -0.2569 0.2743 -0.9267
vn -0.3169 0.0795 -0.9451
vn -0.2545 0.0926 -0.9626
vn -0.2608 0.2272 -0.9383
vn -0.1845 0.2150 -0.9590
vn -0.1671 0.2090 -0.9635
vn -0.1726 0.1862 -0.9672
vn -0.1745 0.1464 -0.9737
usemtl wire_028089177
s 1
f 1/1/1 2/2/2 3/3/3
f 1/1/1 4/4/4 2/2/2
f 4/4/4 5/5/5 2/2/2
f 5/5/5 6/6/6 2/2/2
f 6/6/6 7/7/7 2/2/2
f 7/7/7 8/8/8 2/2/2
f 8/8/8 9/9/9 2/2/2
f 3/3/3 2/2/2 10/10/10
f 10/10/10 2/2/2 11/11/11
f 10/10/10 11/11/11 12/12/12
f 12/12/12 11/11/11 13/13/13
f 13/13/13 11/11/11 14/14/14
f 14/14/14 11/11/11 15/15/15
f 15/15/15 11/11/11 16/16/16
f 16/16/16 11/11/11 17/17/17
f 16/16/16 17/17/17 18/18/18
f 16/16/16 18/18/18 19/19/19
f 20/20/20 21/21/21 22/22/22
f 20/20/20 22/22/22 23/23/23
f 23/23/23 22/22/22 24/24/24
f 24/24/24 22/22/22 25/25/25
f 25/25/25 22/22/22 26/26/26
f 26/26/26 22/22/22 27/27/27
f 27/27/27 22/22/22 28/28/28
f 21/21/21 29/29/29 22/22/22
f 29/29/29 30/30/30 22/22/22
f 29/29/29 31/31/31 30/30/30
f 31/31/31 32/32/32 30/30/30
f 32/32/32 33/33/33 30/30/30
f 33/33/33 34/34/34 30/30/30
f 34/34/34 35/35/35 30/30/30
f 35/35/35 36/36/36 30/30/30
f 35/35/35 37/37/37 36/36/36
f 35/35/35 38/38/38 37/37/37
f 9/9/9 39/39/39 2/2/2
f 2/2/2 39/39/39 40/40/40
f 2/2/2 40/40/40 11/11/41
f 11/11/41 40/40/40 41/41/42
f 11/11/41 41/41/42 17/17/43
f 41/41/42 42/42/44 17/17/43
f 18/18/45 17/17/43 42/42/44
f 18/18/45 42/42/44 43/43/46
f 19/19/47 18/18/45 43/43/46
f 44/44/48 19/19/47 43/43/46
f 16/16/49 19/19/47 44/44/48
f 45/45/50 16/16/49 44/44/48
f 15/15/51 16/16/49 45/45/50
f 46/46/52 15/15/51 45/45/50
f 14/14/53 15/15/51 46/46/52
f 47/47/54 14/14/53 46/46/52
f 13/13/55 14/14/53 47/47/54
f 48/48/56 13/13/55 47/47/54
f 12/12/57 13/13/55 48/48/56
f 49/49/58 12/12/57 48/48/56
f 10/10/59 12/12/57 49/49/58
f 50/50/60 10/10/59 49/49/58
f 3/3/61 10/10/59 50/50/60
f 51/51/62 3/3/61 50/50/60
f 51/51/62 1/1/63 3/3/61
f 52/52/64 1/1/63 51/51/62
f 52/52/65 53/53/66 4/4/67
f 53/53/66 5/5/68 4/4/67
f 53/53/66 54/54/69 5/5/68
f 54/54/69 6/6/70 5/5/68
f 54/54/69 55/55/71 6/6/70
f 55/55/71 7/7/72 6/6/70
f 55/55/71 56/56/73 7/7/72
f 56/56/73 8/8/74 7/7/72
f 56/56/73 57/57/75 8/8/74
f 57/57/75 9/9/9 8/8/74
f 57/57/75 39/39/39 9/9/9
f 28/28/28 22/22/22 58/58/76
f 22/22/22 59/59/77 58/58/76
f 22/22/22 30/30/78 59/59/77
f 30/30/78 60/60/79 59/59/77
f 30/30/78 36/36/80 60/60/79
f 60/60/79 36/36/80 61/61/81
f 37/37/82 61/61/81 36/36/80
f 37/37/82 62/62/83 61/61/81
f 38/38/84 62/62/83 37/37/82
f 63/63/85 62/62/83 38/38/84
f 35/35/86 63/63/85 38/38/84
f 64/64/87 63/63/85 35/35/86
f 34/34/88 64/64/87 35/35/86
f 65/65/89 64/64/87 34/34/88
f 33/33/90 65/65/89 34/34/88
f 66/66/91 65/65/89 33/33/90
f 32/32/32 66/66/91 33/33/90
f 67/67/92 66/66/91 32/32/32
f 68/68/93 67/67/94 31/31/95
f 29/29/96 68/68/93 31/31/95
f 69/69/97 68/68/93 29/29/96
f 21/21/21 69/69/97 29/29/96
f 70/70/98 69/69/97 21/21/21
f 70/70/98 21/21/21 20/20/20
f 71/71/99 70/70/98 20/20/20
f 71/71/99 20/20/20 23/23/23
f 71/71/99 23/23/23 72/72/100
f 72/72/100 23/23/23 24/24/24
f 72/72/100 24/24/24 73/73/101
f 73/73/101 24/24/24 25/25/102
f 73/73/101 25/25/102 74/74/103
f 74/74/103 25/25/102 26/26/104
f 74/74/103 26/26/104 75/75/105
f 75/75/105 26/26/104 27/27/106
f 75/75/105 27/27/106 76/76/107
f 76/76/107 27/27/106 28/28/28
f 76/76/107 28/28/28 58/58/76
f 31/31/31 67/67/92 32/32/32
f 52/52/108 4/4/108 1/1/108
f 77/77/109 78/78/110 79/79/111
f 77/77/109 79/79/111 80/80/112
f 77/77/109 80/80/112 81/81/113
f 77/77/109 81/81/113 82/82/114
f 78/78/110 83/83/115 79/79/111
f 77/77/109 82/82/114 84/84/116
f 77/77/109 84/84/116 85/85/117
f 86/86/118 77/77/109 85/85/117
f 86/86/118 85/85/117 87/87/119
f 86/86/118 87/87/119 88/88/120
f 86/86/118 88/88/120 89/89/121
f 90/90/122 86/86/118 89/89/121
f 90/90/122 89/89/121 91/91/123
f 90/90/122 91/91/123 92/92/124
f 92/92/124 91/91/123 93/93/125
f 94/94/126 92/92/124 93/93/125
f 95/95/127 94/94/126 93/93/125
f 96/96/128 78/78/110 77/77/109
f 97/97/129 96/96/128 77/77/109
f 98/98/130 96/96/128 97/97/129
f 99/99/131 98/98/130 97/97/129
f 100/100/132 99/99/131 97/97/129
f 101/101/133 77/77/109 86/86/118
f 101/101/133 97/97/129 77/77/109
f 102/102/134 97/97/129 101/101/133
f 102/102/134 100/100/132 97/97/129
f 101/101/133 86/86/118 90/90/122
f 103/103/135 101/101/133 90/90/122
f 102/102/134 101/101/133 103/103/135
f 102/102/134 103/103/135 104/104/136
f 104/104/136 103/103/135 105/105/137
f 106/106/138 104/104/136 105/105/137
f 106/106/138 105/105/137 107/107/139
f 108/108/140 106/106/138 107/107/139
f 105/105/137 90/90/122 92/92/124
f 105/105/137 103/103/135 90/90/122
f 107/107/139 92/92/124 94/94/126
f 107/107/139 105/105/137 92/92/124
f 109/109/141 94/94/126 95/95/127
f 110/110/142 109/109/141 95/95/127
f 111/111/143 94/94/126 109/109/141
f 111/111/143 107/107/139 94/94/126
f 108/108/140 107/107/139 111/111/143
f 112/112/144 108/108/140 111/111/143
f 113/113/145 112/112/144 111/111/143
f 114/114/146 113/113/145 111/111/143
f 114/114/146 111/111/143 115/115/147
f 115/115/147 111/111/143 110/110/142
f 111/111/143 109/109/141 110/110/142
f 116/116/148 117/117/149 118/118/150
f 116/116/148 119/119/151 117/117/149
f 116/116/148 120/120/152 119/119/151
f 116/116/148 121/121/153 120/120/152
f 118/118/150 117/117/149 122/122/154
f 116/116/148 123/123/155 121/121/153
f 116/116/148 124/124/156 123/123/155
f 125/125/157 124/124/156 116/116/148
f 125/125/157 126/126/158 124/124/156
f 125/125/157 127/127/159 126/126/158
f 125/125/157 128/128/160 127/127/159
f 129/129/161 128/128/160 125/125/157
f 129/129/161 130/130/162 128/128/160
f 129/129/161 131/131/163 130/130/162
f 131/131/163 132/132/164 130/130/162
f 133/133/165 132/132/164 131/131/163
f 134/134/166 132/132/164 133/133/165
f 135/135/167 116/116/148 118/118/150
f 136/136/168 116/116/148 135/135/167
f 137/137/169 136/136/168 135/135/167
f 138/138/170 136/136/168 137/137/169
f 139/139/171 136/136/168 138/138/170
f 140/140/172 125/125/157 116/116/148
f 140/140/172 116/116/148 136/136/168
f 141/141/173 140/140/172 136/136/168
f 141/141/173 136/136/168 139/139/171
f 140/140/172 129/129/161 125/125/157
f 142/142/174 129/129/161 140/140/172
f 141/141/173 142/142/174 140/140/172
f 141/141/173 143/143/175 142/142/174
f 143/143/175 144/144/176 142/142/174
f 145/145/177 144/144/176 143/143/175
f 145/145/177 146/146/178 144/144/176
f 147/147/179 146/146/178 145/145/177
f 144/144/176 131/131/163 129/129/161
f 144/144/176 129/129/161 142/142/174
f 146/146/178 133/133/165 131/131/163
f 146/146/178 131/131/163 144/144/176
f 148/148/180 134/134/166 133/133/165
f 149/149/181 134/134/166 148/148/180
f 150/150/182 148/148/180 133/133/165
f 150/150/182 133/133/165 146/146/178
f 147/147/179 150/150/182 146/146/178
f 151/151/183 150/150/182 147/147/179
f 152/152/184 150/150/182 151/151/183
f 153/153/185 150/150/182 152/152/184
f 153/153/185 154/154/186 150/150/182
f 154/154/186 149/149/181 150/150/182
f 150/150/182 149/149/181 148/148/180
