# Blender v2.79 (sub 0) OBJ File: ''
# www.blender.org
mtllib blender_scriptsvetilo_001.mtl
o svetilo_001
v -28.364799 46.646194 19.385607
v -28.339600 46.500397 19.593107
v -28.328400 46.435097 19.543808
v -28.353500 46.580997 19.336308
v -28.309799 46.327396 17.096807
v -28.280399 46.157097 16.910408
v -28.290501 46.215694 16.852808
v -28.319901 46.385998 17.039207
v -28.442600 47.096996 19.592207
v -28.431200 47.030895 19.839708
v -28.417801 46.953094 19.817308
v -28.429199 47.019196 19.569807
v -28.528200 47.592796 19.883408
v -28.514200 47.512096 19.883408
v -28.528200 47.592796 19.626608
v -28.514200 47.512096 19.626608
v -28.622801 48.141296 19.692308
v -28.610100 48.067898 19.727308
v -28.605000 48.038097 19.458908
v -28.592300 47.964695 19.493807
v -28.645300 48.271496 16.542307
v -28.610701 48.071297 16.715008
v -28.633499 48.203094 16.497707
v -28.622499 48.139595 16.759607
v -28.552900 47.736298 16.288609
v -28.530300 47.605396 16.522108
v -28.539301 47.657394 16.271008
v -28.543900 47.684296 16.539707
v -28.456400 47.177097 16.272408
v -28.448500 47.131298 16.538307
v -28.442600 47.097095 16.283907
v -28.462299 47.211296 16.526707
v -28.372700 46.692295 16.733809
v -28.352699 46.576096 16.507008
v -28.365000 46.647396 16.467707
v -28.385000 46.763596 16.694508
v -28.267099 46.080097 21.972307
v -28.253500 46.001095 22.034607
v -28.229700 45.863197 21.846708
v -28.243299 45.942196 21.784409
v -28.255100 46.010696 20.183008
v -28.227699 45.851997 20.352509
v -28.242800 45.939495 20.111307
v -28.215500 45.780796 20.280708
v -28.350100 46.561195 21.056707
v -28.306299 46.307396 21.070707
v -28.345600 46.535095 20.967707
v -28.306299 46.307396 20.967707
v -28.700500 48.591396 19.319107
v -28.690201 48.531796 19.375608
v -28.671700 48.424496 19.129507
v -28.661400 48.364895 19.185907
v -28.755100 48.907997 18.794708
v -28.748699 48.870598 18.868908
v -28.717199 48.688496 18.675907
v -28.710800 48.651096 18.750208
v -28.778000 49.040398 18.148008
v -28.777000 49.034695 18.231508
v -28.735399 48.793495 18.129808
v -28.734400 48.787796 18.213308
v -28.766600 48.974297 17.588308
v -28.721600 48.713898 17.589407
v -28.762199 48.948997 17.508808
v -28.726000 48.739296 17.668907
v -28.718100 48.693695 16.975107
v -28.677200 48.456398 17.086208
v -28.708799 48.639297 16.913208
v -28.686600 48.510696 17.148108
v -28.311300 46.336098 13.966208
v -28.291800 46.223396 14.120308
v -28.284700 46.182396 13.934308
v -28.537399 47.646194 19.587208
v -28.499901 47.428795 19.587208
v -28.537399 47.646194 19.242308
v -28.499901 47.428795 19.242308
v -28.398300 46.840595 19.315308
v -28.360800 46.623196 19.315308
v -28.398300 46.840595 18.970407
v -28.360800 46.623196 18.970407
v -28.567200 47.818897 19.454607
v -28.604700 48.036297 19.109707
v -28.567200 47.818897 19.109707
v -28.668699 48.407097 18.771408
v -28.706200 48.624496 18.426508
v -28.668699 48.407097 18.426508
v -28.464500 47.224197 19.527508
v -28.427000 47.006798 19.527508
v -28.464500 47.224197 19.182608
v -28.427000 47.006798 19.182608
v -28.728300 48.752396 18.346909
v -28.690800 48.534996 18.346909
v -28.728300 48.752396 18.002108
v -28.690800 48.534996 18.002108
v -28.614599 48.093796 17.133207
v -28.577101 47.876396 17.133207
v -28.614599 48.093796 16.788307
v -28.577101 47.876396 16.788307
v -28.663200 48.375095 18.811207
v -28.625601 48.157696 19.156107
v -28.625601 48.157696 18.811207
v -28.552799 47.735695 16.967407
v -28.515301 47.518295 16.967407
v -28.552799 47.735695 16.622507
v -28.515301 47.518295 16.622507
v -28.358601 46.610397 17.405107
v -28.321100 46.392998 17.405107
v -28.358601 46.610397 17.060308
v -28.711700 48.656498 17.823008
v -28.674200 48.439095 17.823008
v -28.711700 48.656498 17.478107
v -28.674200 48.439095 17.478107
v -28.673100 48.432697 17.391907
v -28.635599 48.215298 17.391907
v -28.673100 48.432697 17.047009
v -28.635599 48.215298 17.047009
v -28.482201 47.326496 16.960808
v -28.444700 47.109097 16.960808
v -28.482201 47.326496 16.615908
v -28.444700 47.109097 16.615908
v -28.412701 46.923695 17.100107
v -28.375200 46.706295 17.100107
v -28.412701 46.923695 16.755207
v -28.276400 46.133801 10.343207
v -28.232901 45.881699 10.346208
v -28.232800 45.881199 10.257308
v -28.282700 46.170799 10.256707
v -28.024300 44.828796 15.113708
v -27.996300 44.666897 15.113708
v -28.024300 44.828796 14.978308
v -27.996300 44.666897 14.967407
v -28.024300 44.828796 14.832007
v -27.994499 44.656395 14.832007
v -28.023399 44.823597 14.664007
v -27.995399 44.661697 14.653208
v -28.027901 44.849796 17.046408
v -27.986799 44.611797 17.046408
v -28.027901 44.849796 16.468508
v -27.988701 44.622597 16.479807
v -28.026899 44.844395 16.345108
v -27.987700 44.617195 16.384407
v -28.026899 44.844395 16.227308
v -27.988701 44.622597 16.221708
v -28.029699 44.860596 18.168608
v -28.027901 44.849796 19.335608
v -27.993299 44.649696 19.330008
v -27.993299 44.649696 18.163008
v -24.696100 40.144299 3.334507
v -25.052401 40.181000 3.287107
v -25.025200 40.072201 3.334507
v -24.723301 40.253101 3.287107
v -25.063700 40.226101 3.172706
v -24.734600 40.298100 3.172707
v -25.052401 40.181000 3.058206
v -24.723301 40.253101 3.058207
v -25.025200 40.072201 3.010806
v -24.696100 40.144299 3.010806
v -24.997900 39.963402 3.058206
v -24.668900 40.035500 3.058206
v -24.986700 39.918301 3.172706
v -24.657600 39.990398 3.172706
v -24.997900 39.963402 3.287107
v -24.668900 40.035500 3.287107
v -28.471001 47.261902 11.692907
v -28.442200 47.094799 11.703708
v -28.471001 47.261902 11.519608
v -28.441299 47.089600 11.535808
v -28.423300 46.985195 11.730807
v -28.418800 46.959099 11.568308
v -28.403500 46.870296 11.779508
v -28.382700 46.750298 11.839108
v -28.399900 46.849400 11.617007
v -28.368299 46.666695 11.709107
v -28.554800 47.747398 11.703708
v -28.511600 47.496799 11.682008
v -28.511600 47.496799 11.519608
v -28.558399 47.768299 11.541207
v -28.256201 46.016701 9.368708
v -28.234900 45.893501 9.573308
v -28.222099 45.819500 9.528507
v -28.241301 45.930500 9.324008
v -28.304399 46.296101 9.612608
v -28.272499 46.111599 9.775007
v -28.255199 46.011002 9.664807
v -28.285101 46.184299 9.479307
v -28.266500 46.076599 11.305108
v -28.252001 45.992699 11.349308
v -28.226801 45.846500 11.165708
v -28.242300 45.936600 11.115108
v -28.296600 46.251400 11.184008
v -28.264799 46.066898 11.010008
v -28.313999 46.352001 11.062207
v -28.279301 46.150700 10.917308
v -25.358700 42.297199 2.347107
v -24.711100 39.564602 2.347106
v -24.711100 39.564602 -4.085593
v -25.358700 42.297199 -4.085593
vt 0.000000 0.000000
vt 0.000000 0.000000
vt 0.000000 0.000000
vt 0.000000 0.000000
vt 0.000000 0.000000
vt 0.000000 0.000000
vt 0.000000 0.000000
vt 0.000000 0.000000
vt 0.000000 0.000000
vt 0.000000 0.000000
vt 0.000000 0.000000
vt 0.000000 0.000000
vt 0.000000 0.000000
vt 0.000000 0.000000
vt 0.000000 0.000000
vt 0.000000 0.000000
vt 0.000000 0.000000
vt 0.000000 0.000000
vt 0.000000 0.000000
vt 0.000000 0.000000
vt 0.000000 0.000000
vt 0.000000 0.000000
vt 0.000000 0.000000
vt 0.000000 0.000000
vt 0.000000 0.000000
vt 0.000000 0.000000
vt 0.000000 0.000000
vt 0.000000 0.000000
vt 0.000000 0.000000
vt 0.000000 0.000000
vt 0.000000 0.000000
vt 0.000000 0.000000
vt 0.000000 0.000000
vt 0.000000 0.000000
vt 0.000000 0.000000
vt 0.000000 0.000000
vt 0.000000 0.000000
vt 0.000000 0.000000
vt 0.000000 0.000000
vt 0.000000 0.000000
vt 0.000000 0.000000
vt 0.000000 0.000000
vt 0.000000 0.000000
vt 0.000000 0.000000
vt 0.000000 0.000000
vt 0.000000 0.000000
vt 0.000000 0.000000
vt 0.000000 0.000000
vt 0.000000 0.000000
vt 0.000000 0.000000
vt 0.000000 0.000000
vt 0.000000 0.000000
vt 0.000000 0.000000
vt 0.000000 0.000000
vt 0.000000 0.000000
vt 0.000000 0.000000
vt 0.000000 0.000000
vt 0.000000 0.000000
vt 0.000000 0.000000
vt 0.000000 0.000000
vt 0.000000 0.000000
vt 0.000000 0.000000
vt 0.000000 0.000000
vt 0.000000 0.000000
vt 0.000000 0.000000
vt 0.000000 0.000000
vt 0.000000 0.000000
vt 0.000000 0.000000
vt 0.000000 0.000000
vt 0.000000 0.000000
vt 0.000000 0.000000
vt 0.000000 0.000000
vt 0.000000 0.000000
vt 0.000000 0.000000
vt 0.000000 0.000000
vt 0.000000 0.000000
vt 0.000000 0.000000
vt 0.000000 0.000000
vt 0.000000 0.000000
vt 0.000000 0.000000
vt 0.000000 0.000000
vt 0.000000 0.000000
vt 0.000000 0.000000
vt 0.000000 0.000000
vt 0.000000 0.000000
vt 0.000000 0.000000
vt 0.000000 0.000000
vt 0.000000 0.000000
vt 0.000000 0.000000
vt 0.000000 0.000000
vt 0.000000 0.000000
vt 0.000000 0.000000
vt 0.000000 0.000000
vt 0.000000 0.000000
vt 0.000000 0.000000
vt 0.000000 0.000000
vt 0.000000 0.000000
vt 0.000000 0.000000
vt 0.000000 0.000000
vt 0.000000 0.000000
vt 0.000000 0.000000
vt 0.000000 0.000000
vt 0.000000 0.000000
vt 0.000000 0.000000
vt 0.000000 0.000000
vt 0.000000 0.000000
vt 0.000000 0.000000
vt 0.000000 0.000000
vt 0.000000 0.000000
vt 0.000000 0.000000
vt 0.000000 0.000000
vt 0.000000 0.000000
vt 0.000000 0.000000
vt 0.000000 0.000000
vt 0.000000 0.000000
vt 0.000000 0.000000
vt 0.000000 0.000000
vt 0.000000 0.000000
vt 0.000000 0.000000
vt 0.000000 0.000000
vt 0.000000 0.000000
vt 0.000000 0.000000
vt 0.000000 0.000000
vt 0.000000 0.000000
vt 0.000000 0.000000
vt 0.000000 0.000000
vt 0.000000 0.000000
vt 0.000000 0.000000
vt 0.000000 0.000000
vt 0.000000 0.000000
vt 0.000000 0.000000
vt 0.000000 0.000000
vt 0.000000 0.000000
vt 0.000000 0.000000
vt 0.000000 0.000000
vt 0.000000 0.000000
vt 0.000000 0.000000
vt 0.000000 0.000000
vt 0.000000 0.000000
vt 0.000000 0.000000
vt 0.000000 0.000000
vt 0.000000 0.000000
vt 0.000000 0.000000
vt 0.000000 0.000000
vt 0.000000 0.000000
vt 0.000000 0.000000
vt 0.000000 0.000000
vt 0.000000 0.000000
vt 0.000000 0.000000
vt 0.000000 0.000000
vt 0.000000 0.000000
vt 0.000000 0.000000
vt 0.000000 0.000000
vt 0.000000 0.000000
vt 0.000000 0.000000
vt 0.000000 0.000000
vt 0.000000 0.000000
vt 0.000000 0.000000
vt 0.000000 0.000000
vt 0.000000 0.000000
vt 0.000000 0.000000
vt 0.000000 0.000000
vt 0.000000 0.000000
vt 0.000000 0.000000
vt 0.000000 0.000000
vt 0.000000 0.000000
vt 0.000000 0.000000
vt 0.000000 0.000000
vt 0.000000 0.000000
vt 0.000000 0.000000
vt 0.000000 0.000000
vt 0.000000 0.000000
vt 0.000000 0.000000
vt 0.000000 0.000000
vt 0.000000 0.000000
vt 0.000000 0.000000
vt 0.000000 0.000000
vt 0.000000 0.000000
vt 0.000000 0.000000
vt 0.000000 0.000000
vt 0.000000 0.000000
vt 0.000000 0.000000
vt 0.000000 0.000000
vt 0.000000 0.000000
vt 0.000000 0.000000
vt 0.000000 0.000000
vt 0.000000 0.000000
vt 0.000000 0.000000
vt 0.000000 0.000000
vt 0.000000 0.000000
vt 0.000000 0.000000
vt 0.000000 0.000000
vt 0.000000 0.000000
vt 0.000000 0.000000
vt 0.000000 0.000000
vt 0.000000 0.000000
vn 0.9872 0.1593 0.0000
vn -0.0000 0.0000 1.0000
vn -0.1612 0.6885 0.7071
vn -0.2280 0.9737 -0.0000
vn -0.1612 0.6885 -0.7071
vn 0.0000 -0.0000 -1.0000
vn 0.1612 -0.6885 -0.7071
vn 0.2280 -0.9737 -0.0000
vn 0.1612 -0.6885 0.7071
vn 0.9763 0.2164 -0.0000
usemtl wire_028089177
s 1
f 1/1/1 2/2/1 3/3/1
f 1/1/1 3/3/1 4/4/1
f 5/5/1 6/6/1 7/7/1
f 8/8/1 5/5/1 7/7/1
f 9/9/1 10/10/1 11/11/1
f 9/9/1 11/11/1 12/12/1
f 13/13/1 14/14/1 15/15/1
f 15/15/1 14/14/1 16/16/1
f 17/17/1 18/18/1 19/19/1
f 18/18/1 20/20/1 19/19/1
f 21/21/1 22/22/1 23/23/1
f 21/21/1 24/24/1 22/22/1
f 25/25/1 26/26/1 27/27/1
f 25/25/1 28/28/1 26/26/1
f 29/29/1 30/30/1 31/31/1
f 32/32/1 30/30/1 29/29/1
f 33/33/1 34/34/1 35/35/1
f 36/36/1 33/33/1 35/35/1
f 37/37/1 38/38/1 39/39/1
f 37/37/1 39/39/1 40/40/1
f 41/41/1 42/42/1 43/43/1
f 43/43/1 42/42/1 44/44/1
f 45/45/1 46/46/1 47/47/1
f 47/47/1 46/46/1 48/48/1
f 49/49/1 50/50/1 51/51/1
f 50/50/1 52/52/1 51/51/1
f 53/53/1 54/54/1 55/55/1
f 54/54/1 56/56/1 55/55/1
f 57/57/1 58/58/1 59/59/1
f 58/58/1 60/60/1 59/59/1
f 61/61/1 62/62/1 63/63/1
f 61/61/1 64/64/1 62/62/1
f 65/65/1 66/66/1 67/67/1
f 65/65/1 68/68/1 66/66/1
f 69/69/1 70/70/1 71/71/1
f 72/72/1 73/73/1 74/74/1
f 74/74/1 73/73/1 75/75/1
f 76/76/1 77/77/1 78/78/1
f 78/78/1 77/77/1 79/79/1
f 19/19/1 80/80/1 81/81/1
f 81/81/1 80/80/1 82/82/1
f 56/56/1 83/83/1 84/84/1
f 84/84/1 83/83/1 85/85/1
f 86/86/1 87/87/1 88/88/1
f 88/88/1 87/87/1 89/89/1
f 90/90/1 91/91/1 92/92/1
f 92/92/1 91/91/1 93/93/1
f 94/94/1 95/95/1 96/96/1
f 96/96/1 95/95/1 97/97/1
f 98/98/1 52/52/1 99/99/1
f 98/98/1 99/99/1 100/100/1
f 101/101/1 102/102/1 103/103/1
f 103/103/1 102/102/1 104/104/1
f 105/105/1 106/106/1 107/107/1
f 107/107/1 106/106/1 8/8/1
f 108/108/1 109/109/1 110/110/1
f 110/110/1 109/109/1 111/111/1
f 112/112/1 113/113/1 114/114/1
f 114/114/1 113/113/1 115/115/1
f 116/116/1 117/117/1 118/118/1
f 118/118/1 117/117/1 119/119/1
f 120/120/1 121/121/1 122/122/1
f 122/122/1 121/121/1 33/33/1
f 123/123/1 124/124/1 125/125/1
f 126/126/1 123/123/1 125/125/1
f 127/127/1 128/128/1 129/129/1
f 129/129/1 128/128/1 130/130/1
f 131/131/1 132/132/1 133/133/1
f 133/133/1 132/132/1 134/134/1
f 135/135/1 136/136/1 137/137/1
f 137/137/1 136/136/1 138/138/1
f 139/139/1 140/140/1 141/141/1
f 141/141/1 140/140/1 142/142/1
f 143/143/1 144/144/1 145/145/1
f 143/143/1 145/145/1 146/146/1
f 147/147/2 148/148/3 149/149/2
f 147/147/2 150/150/3 148/148/3
f 150/150/3 151/151/4 148/148/3
f 150/150/3 152/152/4 151/151/4
f 152/152/4 153/153/5 151/151/4
f 152/152/4 154/154/5 153/153/5
f 154/154/5 155/155/6 153/153/5
f 156/156/6 155/155/6 154/154/5
f 156/156/6 157/157/7 155/155/6
f 158/158/7 157/157/7 156/156/6
f 159/159/8 157/157/7 158/158/7
f 159/159/8 158/158/7 160/160/8
f 161/161/9 159/159/8 160/160/8
f 161/161/9 160/160/8 162/162/9
f 162/162/9 149/149/2 161/161/9
f 162/162/9 147/147/2 149/149/2
f 163/163/1 164/164/1 165/165/1
f 165/165/1 164/164/1 166/166/1
f 166/166/1 167/167/1 168/168/1
f 167/167/1 169/169/1 168/168/1
f 169/169/1 170/170/1 171/171/1
f 171/171/1 170/170/1 172/172/1
f 173/173/1 174/174/1 175/175/1
f 176/176/1 173/173/1 175/175/1
f 177/177/1 178/178/1 179/179/1
f 177/177/1 179/179/1 180/180/1
f 181/181/1 182/182/1 183/183/1
f 181/181/1 183/183/1 184/184/1
f 184/184/1 183/183/1 178/178/1
f 184/184/1 178/178/1 177/177/1
f 185/185/1 186/186/1 187/187/1
f 185/185/1 187/187/1 188/188/1
f 189/189/1 185/185/1 188/188/1
f 189/189/1 188/188/1 190/190/1
f 191/191/1 189/189/1 190/190/1
f 191/191/1 190/190/1 192/192/1
f 193/193/10 194/194/10 195/195/10
f 193/193/10 195/195/10 196/196/10
