# Blender v2.79 (sub 0) OBJ File: ''
# www.blender.org
mtllib blender_scriptGroup_002.mtl
o Group_002
v 86.013397 42.765003 -27.084692
v 87.234001 42.709103 -21.475693
v 87.335602 41.528805 -22.454391
v 87.919800 41.530704 -18.070292
v 87.971703 42.679703 -16.493893
v 87.971703 41.379303 -17.890993
v 87.971703 41.344204 -16.859592
v 87.971703 40.205402 -18.227394
v 87.971703 38.441803 -18.008595
v 87.934601 40.080402 -18.433994
v 87.335602 38.434002 -22.783995
v 87.386902 40.065105 -22.379993
v 87.335602 40.244503 -22.605795
v 87.971703 37.268204 -18.852995
v 87.937401 36.656902 -19.724394
v 87.800499 36.416306 -21.000195
v 87.352699 36.359406 -23.560194
v 86.488602 38.384903 -27.085594
v 86.509003 36.350304 -27.103195
v 86.338501 40.895603 -27.039894
v 87.288498 41.391605 -22.599192
v 86.013397 42.764996 27.052107
v 87.335602 41.528797 22.421808
v 87.234001 42.709095 21.443108
v 87.919800 41.530697 18.037708
v 87.971703 42.679695 16.461308
v 87.971703 41.379295 17.858408
v 87.971703 41.344196 16.827007
v 87.971703 40.205395 18.194805
v 87.971703 38.441795 17.976006
v 87.934601 40.080395 18.401405
v 87.335602 38.433994 22.751406
v 87.335602 40.244495 22.573206
v 87.386902 40.065098 22.347406
v 87.971703 37.268196 18.820406
v 87.937401 36.656895 19.691805
v 87.800499 36.416298 20.967506
v 87.352699 36.359398 23.527605
v 86.488602 38.384895 27.053106
v 86.509003 36.350296 27.070606
v 86.338501 40.895596 27.007305
v 87.288498 41.391598 22.566608
v 87.971703 38.429302 -17.894693
v 87.971703 37.224705 -18.761494
v 87.971703 41.408302 -16.715393
v 87.971802 42.778904 -16.339993
v 87.971802 42.778896 16.307407
v 87.971703 41.408295 16.682808
v 86.538101 33.855003 -27.151794
v 88.389397 33.816704 -18.333994
v 86.599098 32.950504 -26.972994
v 86.717796 32.094704 -26.607994
v 86.866203 31.351105 -26.067795
v 86.982597 30.860104 -25.556795
v 87.085197 30.663704 -25.104294
v 87.220001 30.593603 -24.447294
v 88.165802 30.596104 -18.066093
v 88.938599 33.958302 -9.875594
v 88.817299 30.695202 -9.974395
v 89.079697 33.936199 -1.980095
v 88.981796 30.546600 -1.882695
v 86.538101 33.854996 27.119205
v 86.599098 32.950497 26.940405
v 88.389397 33.816696 18.301405
v 86.717796 32.094696 26.575405
v 86.866203 31.351097 26.035206
v 88.938599 33.958302 9.842906
v 88.165802 30.596096 18.033506
v 88.817299 30.695198 9.941805
v 89.079697 33.936199 1.947505
v 88.981796 30.546600 1.850105
v 88.180801 41.531506 -13.115593
v 88.070801 42.789505 -13.019493
v 87.800499 36.350296 20.932705
v 87.352699 36.291897 23.560307
v 87.937401 36.597298 19.623205
v 88.427597 36.640301 11.630506
v 88.489700 36.037601 10.909205
v 88.588898 35.645802 9.780206
v 88.296700 38.913197 12.446406
v 87.971703 37.224697 18.728907
v 87.971703 38.429295 17.862106
v 88.180801 41.531498 13.083007
v 88.070801 42.789497 12.986907
v 87.352699 36.291904 -23.592894
v 86.511902 36.263004 -27.103195
v 87.800499 36.350304 -20.965294
v 87.937401 36.597305 -19.655794
v 88.427597 36.640301 -11.663095
v 88.489700 36.037601 -10.941794
v 88.588898 35.645802 -9.812795
v 88.761902 35.623699 -1.946294
v 86.982597 30.860096 25.524206
v 87.085197 30.663696 25.071705
v 87.220001 30.593596 24.414705
v 88.296700 38.913204 -12.478993
v 86.511902 36.262997 27.070606
v 88.761902 35.623699 1.913706
vt 0.000000 0.000000
vt 0.000000 0.000000
vt 0.000000 0.000000
vt 0.000000 0.000000
vt 0.000000 0.000000
vt 0.000000 0.000000
vt 0.000000 0.000000
vt 0.000000 0.000000
vt 0.000000 0.000000
vt 0.000000 0.000000
vt 0.000000 0.000000
vt 0.000000 0.000000
vt 0.000000 0.000000
vt 0.000000 0.000000
vt 0.000000 0.000000
vt 0.000000 0.000000
vt 0.000000 0.000000
vt 0.000000 0.000000
vt 0.000000 0.000000
vt 0.000000 0.000000
vt 0.000000 0.000000
vt 0.000000 0.000000
vt 0.000000 0.000000
vt 0.000000 0.000000
vt 0.000000 0.000000
vt 0.000000 0.000000
vt 0.000000 0.000000
vt 0.000000 0.000000
vt 0.000000 0.000000
vt 0.000000 0.000000
vt 0.000000 0.000000
vt 0.000000 0.000000
vt 0.000000 0.000000
vt 0.000000 0.000000
vt 0.000000 0.000000
vt 0.000000 0.000000
vt 0.000000 0.000000
vt 0.000000 0.000000
vt 0.000000 0.000000
vt 0.000000 0.000000
vt 0.000000 0.000000
vt 0.000000 0.000000
vt 0.000000 0.000000
vt 0.000000 0.000000
vt 0.000000 0.000000
vt 0.000000 0.000000
vt 0.000000 0.000000
vt 0.000000 0.000000
vt 0.000000 0.000000
vt 0.000000 0.000000
vt 0.000000 0.000000
vt 0.000000 0.000000
vt 0.000000 0.000000
vt 0.000000 0.000000
vt 0.000000 0.000000
vt 0.000000 0.000000
vt 0.000000 0.000000
vt 0.000000 0.000000
vt 0.000000 0.000000
vt 0.000000 0.000000
vt 0.000000 0.000000
vt 0.000000 0.000000
vt 0.000000 0.000000
vt 0.000000 0.000000
vt 0.000000 0.000000
vt 0.000000 0.000000
vt 0.000000 0.000000
vt 0.000000 0.000000
vt 0.000000 0.000000
vt 0.000000 0.000000
vt 0.000000 0.000000
vt 0.000000 0.000000
vt 0.000000 0.000000
vt 0.000000 0.000000
vt 0.000000 0.000000
vt 0.000000 0.000000
vt 0.000000 0.000000
vt 0.000000 0.000000
vt 0.000000 0.000000
vt 0.000000 0.000000
vt 0.000000 0.000000
vt 0.000000 0.000000
vt 0.000000 0.000000
vt 0.000000 0.000000
vt 0.000000 0.000000
vt 0.000000 0.000000
vt 0.000000 0.000000
vt 0.000000 0.000000
vt 0.000000 0.000000
vt 0.000000 0.000000
vt 0.000000 0.000000
vt 0.000000 0.000000
vt 0.000000 0.000000
vt 0.000000 0.000000
vt 0.000000 0.000000
vt 0.000000 0.000000
vt 0.000000 0.000000
vt 0.000000 0.000000
vn 0.9586 0.1725 -0.2266
vn 0.9676 0.2004 -0.1534
vn 0.9680 0.1648 -0.1893
vn 0.9773 0.1551 -0.1442
vn 0.9924 0.0889 -0.0853
vn 0.9964 0.0610 -0.0581
vn 1.0000 0.0000 0.0000
vn 0.9988 -0.0060 -0.0487
vn 0.9935 0.0246 -0.1113
vn 0.9887 -0.0148 -0.1491
vn 0.9835 0.0508 -0.1737
vn 0.9848 0.0120 -0.1734
vn 0.9767 0.0281 -0.2128
vn 0.9865 0.1009 -0.1290
vn 0.9854 0.1164 -0.1246
vn 0.9850 0.1000 -0.1409
vn 0.9792 0.0646 -0.1922
vn 0.9773 0.0471 -0.2064
vn 0.9727 0.0118 -0.2317
vn 0.9715 0.0981 -0.2157
vn 0.9773 -0.0652 -0.2016
vn 0.9586 0.1725 0.2266
vn 0.9680 0.1648 0.1893
vn 0.9676 0.2004 0.1534
vn 0.9773 0.1551 0.1442
vn 0.9924 0.0890 0.0852
vn 0.9964 0.0610 0.0581
vn 0.9988 -0.0060 0.0487
vn 0.9935 0.0246 0.1113
vn 0.9887 -0.0148 0.1491
vn 0.9835 0.0509 0.1737
vn 0.9767 0.0276 0.2128
vn 0.9848 0.0120 0.1734
vn 0.9865 0.1009 0.1290
vn 0.9854 0.1164 0.1246
vn 0.9850 0.1001 0.1409
vn 0.9792 0.0645 0.1922
vn 0.9773 0.0471 0.2064
vn 0.9727 0.0117 0.2317
vn 0.9715 0.0981 0.2157
vn 0.9773 -0.0651 0.2016
vn 0.9999 -0.0120 -0.0057
vn 0.9998 -0.0196 -0.0094
vn 0.9983 0.0292 -0.0505
vn 0.9993 0.0127 -0.0355
vn 1.0000 -0.0001 0.0000
vn 1.0000 0.0002 -0.0008
vn 1.0000 0.0001 0.0002
vn 1.0000 0.0002 0.0008
vn 1.0000 0.0002 0.0006
vn 0.9743 -0.1751 -0.1417
vn 0.9868 0.0825 -0.1393
vn 0.9891 -0.0320 -0.1436
vn 0.9757 0.1761 -0.1301
vn 0.9895 0.0183 -0.1436
vn 0.9882 0.0580 -0.1416
vn 0.9883 -0.0511 -0.1440
vn 0.9848 0.1066 -0.1371
vn 0.9743 -0.1751 0.1417
vn 0.9891 -0.0320 0.1436
vn 0.9868 0.0825 0.1393
vn 0.9757 0.1761 0.1301
vn 0.9895 0.0184 0.1436
vn 0.9882 0.0580 0.1416
vn 0.9883 -0.0511 0.1440
vn 0.9848 0.1066 0.1371
vn 0.9784 0.0248 -0.2053
vn 0.9915 -0.0584 -0.1159
vn 0.9779 0.0340 -0.2062
vn 0.9773 0.0452 -0.2071
vn 0.9782 0.0365 -0.2045
vn 0.9790 0.0269 -0.2019
vn 0.9784 0.0331 -0.2043
vn 0.9816 0.0054 -0.1906
vn 0.9919 -0.0710 -0.1051
vn 0.9982 -0.0395 -0.0461
vn 0.9982 -0.0339 -0.0498
vn 0.9995 -0.0296 -0.0103
vn 0.9995 -0.0292 -0.0102
vn 0.9784 0.0248 0.2053
vn 0.9779 0.0340 0.2062
vn 0.9915 -0.0584 0.1159
vn 0.9773 0.0452 0.2071
vn 0.9782 0.0364 0.2045
vn 0.9982 -0.0396 0.0461
vn 0.9919 -0.0710 0.1051
vn 0.9982 -0.0340 0.0498
vn 0.9995 -0.0294 0.0103
vn 0.9995 -0.0292 0.0102
vn 0.9976 0.0489 -0.0483
vn 0.9957 0.0873 -0.0300
vn 0.9856 0.0661 0.1555
vn 0.9787 -0.0070 0.2054
vn 0.9903 0.0977 0.0992
vn 0.9909 0.0975 0.0927
vn 0.9971 0.0602 0.0455
vn 0.9943 0.0972 0.0434
vn 0.9817 0.1855 0.0428
vn 0.9791 0.1985 0.0442
vn 0.9976 0.0320 0.0609
vn 0.9975 0.0352 0.0619
vn 0.9973 0.0381 0.0633
vn 0.9980 0.0216 0.0601
vn 0.9976 0.0489 0.0483
vn 0.9981 0.0305 0.0526
vn 0.9957 0.0873 0.0300
vn 0.9787 -0.0070 -0.2054
vn 0.9749 -0.0010 -0.2224
vn 0.9724 0.0153 -0.2330
vn 0.9903 0.0977 -0.0992
vn 0.9856 0.0660 -0.1555
vn 0.9909 0.0974 -0.0927
vn 0.9971 0.0603 -0.0455
vn 0.9943 0.0973 -0.0434
vn 0.9817 0.1855 -0.0428
vn 0.9791 0.1985 -0.0442
vn 0.9832 0.1822 -0.0087
vn 0.9790 0.0269 0.2019
vn 0.9784 0.0331 0.2043
vn 0.9817 0.0054 0.1906
vn 0.9834 0.1810 -0.0086
vn 0.9975 0.0351 -0.0619
vn 0.9976 0.0319 -0.0609
vn 0.9973 0.0381 -0.0633
vn 0.9724 0.0150 0.2330
vn 0.9750 -0.0011 0.2224
vn 0.9832 0.1823 0.0087
vn 0.9834 0.1811 0.0086
vn 0.9719 0.0321 -0.2331
vn 0.9730 0.0982 -0.2088
vn 0.9775 0.0892 -0.1914
vn 0.9719 0.0322 -0.2330
vn 0.9905 -0.0620 -0.1230
vn 0.9874 -0.0734 -0.1405
vn 0.9916 -0.0953 -0.0878
vn 0.9913 -0.0982 -0.0874
vn 0.9995 -0.0239 -0.0212
vn 0.9993 -0.0328 -0.0159
vn 0.9719 0.0323 0.2330
vn 0.9719 0.0323 0.2331
vn 0.9730 0.0982 0.2088
vn 0.9775 0.0892 0.1914
vn 0.9905 -0.0620 0.1230
vn 0.9874 -0.0734 0.1405
vn 0.9979 -0.0483 0.0439
vn 0.9954 -0.0712 0.0634
vn 0.9995 -0.0238 0.0212
vn 0.9993 -0.0328 0.0159
usemtl wire_087224198
s 1
f 1/1/1 2/2/2 3/3/3
f 2/2/2 4/4/4 3/3/3
f 2/2/2 5/5/5 4/4/4
f 5/5/5 6/6/6 4/4/4
f 5/5/5 7/7/7 6/6/6
f 6/6/6 7/7/7 8/8/8
f 7/7/7 9/9/9 8/8/8
f 8/8/8 9/9/9 10/10/10
f 10/10/10 9/9/9 11/11/11
f 10/10/10 11/11/11 12/12/12
f 13/13/13 12/12/12 11/11/11
f 9/9/9 14/14/14 11/11/11
f 11/11/11 14/14/14 15/15/15
f 11/11/11 15/15/15 16/16/16
f 11/11/11 16/16/16 17/17/17
f 11/11/11 17/17/17 18/18/18
f 18/18/18 17/17/17 19/19/19
f 1/1/1 3/3/3 20/20/20
f 3/3/3 21/21/21 20/20/20
f 21/21/21 13/13/13 20/20/20
f 20/20/20 13/13/13 11/11/11
f 20/20/20 11/11/11 18/18/18
f 22/22/22 23/23/23 24/24/24
f 24/24/24 23/23/23 25/25/25
f 24/24/24 25/25/25 26/26/26
f 26/26/26 25/25/25 27/27/27
f 26/26/26 27/27/27 28/28/7
f 27/27/27 29/29/28 28/28/7
f 28/28/7 29/29/28 30/30/29
f 29/29/28 31/31/30 30/30/29
f 31/31/30 32/32/31 30/30/29
f 33/33/32 32/32/31 34/34/33
f 30/30/29 32/32/31 35/35/34
f 32/32/31 36/36/35 35/35/34
f 32/32/31 37/37/36 36/36/35
f 32/32/31 38/38/37 37/37/36
f 32/32/31 39/39/38 38/38/37
f 39/39/38 40/40/39 38/38/37
f 22/22/22 41/41/40 23/23/23
f 23/23/23 41/41/40 42/42/41
f 42/42/41 41/41/40 33/33/32
f 41/41/40 32/32/31 33/33/32
f 41/41/40 39/39/38 32/32/31
f 43/43/7 44/44/42 14/14/43
f 9/9/7 43/43/7 14/14/43
f 45/45/7 43/43/7 9/9/7
f 45/45/7 9/9/7 7/7/7
f 46/46/44 45/45/45 7/7/46
f 46/46/47 7/7/47 5/5/47
f 47/47/48 26/26/49 28/28/50
f 31/31/30 34/34/33 32/32/31
f 3/3/51 6/6/52 21/21/53
f 4/4/54 6/6/52 3/3/51
f 21/21/53 6/6/52 8/8/55
f 21/21/53 8/8/55 13/13/56
f 13/13/56 8/8/55 10/10/57
f 13/13/56 10/10/57 12/12/58
f 23/23/59 42/42/60 27/27/61
f 25/25/62 23/23/59 27/27/61
f 42/42/60 29/29/63 27/27/61
f 42/42/60 33/33/64 29/29/63
f 33/33/64 31/31/65 29/29/63
f 33/33/64 34/34/66 31/31/65
f 49/48/67 50/49/68 51/50/69
f 50/49/68 52/51/70 51/50/69
f 50/49/68 53/52/71 52/51/70
f 50/49/68 54/53/72 53/52/71
f 50/49/68 55/54/73 54/53/72
f 50/49/68 56/55/74 55/54/73
f 50/49/68 57/56/75 56/55/74
f 58/57/76 57/56/75 50/49/68
f 58/57/76 59/58/77 57/56/75
f 58/57/76 60/59/78 59/58/77
f 60/59/78 61/60/79 59/58/77
f 62/61/80 63/62/81 64/63/82
f 64/63/82 63/62/81 65/64/83
f 64/63/82 65/64/83 66/65/84
f 67/66/85 64/63/82 68/67/86
f 67/66/85 68/67/86 69/68/87
f 67/66/85 69/68/87 70/69/88
f 70/69/88 69/68/87 71/70/89
f 70/69/88 71/70/89 61/60/79
f 70/69/88 61/60/79 60/59/78
f 46/46/44 72/71/90 45/45/45
f 73/72/91 72/71/90 46/46/44
f 74/73/92 75/74/93 64/63/94
f 76/75/95 74/73/92 64/63/94
f 77/76/96 76/75/95 64/63/94
f 77/76/96 64/63/94 78/77/97
f 78/77/97 64/63/94 79/78/98
f 79/78/98 64/63/94 67/66/99
f 80/79/100 81/80/101 77/76/96
f 80/79/100 82/81/102 81/80/101
f 48/82/103 82/81/102 80/79/100
f 83/83/104 48/82/103 80/79/100
f 47/47/105 48/82/103 83/83/104
f 84/84/106 47/47/105 83/83/104
f 85/85/107 49/48/108 86/86/109
f 85/85/107 50/49/110 49/48/108
f 87/87/111 50/49/110 85/85/107
f 88/88/112 50/49/110 87/87/111
f 89/89/113 50/49/110 88/88/112
f 89/89/113 90/90/114 50/49/110
f 90/90/114 91/91/115 50/49/110
f 91/91/115 58/57/116 50/49/110
f 91/91/115 92/92/117 58/57/116
f 64/63/82 66/65/84 93/93/118
f 64/63/82 93/93/118 94/94/119
f 64/63/82 94/94/119 95/95/120
f 64/63/82 95/95/120 68/67/86
f 92/92/117 60/59/121 58/57/116
f 44/44/122 89/89/113 88/88/112
f 96/96/123 89/89/113 44/44/122
f 96/96/123 44/44/122 43/43/124
f 45/45/45 96/96/123 43/43/124
f 72/71/90 96/96/123 45/45/45
f 75/74/93 97/97/125 62/61/126
f 75/74/93 62/61/126 64/63/94
f 79/78/98 67/66/99 98/98/127
f 98/98/127 67/66/99 70/69/128
f 81/80/101 76/75/95 77/76/96
f 98/98/127 70/69/128 92/92/117
f 92/92/117 70/69/128 60/59/121
f 30/30/7 35/35/7 82/81/7
f 48/82/7 30/30/7 82/81/7
f 48/82/7 28/28/50 30/30/7
f 82/81/7 35/35/7 81/80/7
f 47/47/48 28/28/50 48/82/7
f 19/19/129 85/85/130 86/86/129
f 17/17/131 85/85/130 19/19/132
f 17/17/131 87/87/133 85/85/130
f 16/16/134 87/87/133 17/17/131
f 88/88/135 87/87/133 16/16/134
f 15/15/136 88/88/135 16/16/134
f 44/44/137 88/88/137 15/15/137
f 14/14/43 44/44/42 15/15/138
f 40/40/139 97/97/140 75/74/141
f 38/38/142 40/40/139 75/74/141
f 38/38/142 75/74/141 74/73/143
f 37/37/144 38/38/142 74/73/143
f 76/75/145 37/37/144 74/73/143
f 36/36/146 37/37/144 76/75/145
f 81/80/147 36/36/146 76/75/145
f 35/35/148 36/36/148 81/80/148
