# Blender v2.79 (sub 0) OBJ File: ''
# www.blender.org
mtllib blender_scriptwindscre01_001.mtl
o windscre01_001
v -16.099899 61.656902 -18.860491
v -15.423400 61.252106 -24.110090
v -19.193899 59.068104 -25.090490
v -19.801800 59.643005 -19.290491
v -23.016001 56.530106 -26.098690
v -24.846500 56.562004 -19.885090
v -27.005800 53.798203 -27.188690
v -30.976500 53.049503 -20.662090
v -30.410500 51.310703 -27.934593
v -34.655102 50.813103 -21.224592
v -32.636799 49.970604 -28.241392
v -34.228699 49.357204 -28.171093
v -35.552299 48.953903 -27.661093
v -36.508400 48.853504 -26.486292
v -38.076401 48.894703 -22.016891
v -11.677400 63.863605 -18.573990
v -11.003600 63.752804 -21.622091
v -10.932900 63.690403 -22.211590
v -11.036700 63.564205 -22.605091
v -11.377600 63.330303 -22.938290
v -16.497400 61.986702 -12.588690
v -20.333401 59.972702 -12.990590
v -25.877701 56.737705 -13.744790
v -31.456600 53.547203 -14.612391
v -35.476898 51.209305 -15.358992
v -39.473499 48.906803 -16.152693
v -12.133600 63.955303 -14.947889
v -12.576500 64.017403 -10.415090
v -16.937599 62.202301 -6.671590
v -20.753099 60.188400 -6.888990
v -12.810900 64.058800 -6.522490
v -26.346399 56.953400 -7.163291
v -31.843399 53.872898 -7.709791
v -35.953800 51.498299 -8.161692
v -40.225899 48.906799 -8.756493
v -36.262299 51.498299 -2.436492
v -40.279598 48.906799 -2.542492
v -32.007702 53.872898 -2.241291
v -26.542601 56.953400 -2.112691
v -20.966400 60.188400 -1.832890
v -17.096300 62.202301 -1.648890
v -12.964700 64.058800 -1.578590
v -19.193899 59.068096 25.081009
v -15.423400 61.252098 24.100609
v -16.099899 61.656895 18.851009
v -19.801800 59.642998 19.281010
v -23.016001 56.530098 26.089209
v -24.846500 56.561996 19.875610
v -27.005800 53.798195 27.179209
v -30.976500 53.049496 20.652609
v -30.410500 51.310696 27.925108
v -34.655102 50.813095 21.215107
v -32.636799 49.970596 28.231907
v -34.228699 49.357197 28.161608
v -35.552399 48.953896 27.651608
v -36.508400 48.853497 26.476809
v -38.076401 48.894695 22.007408
v -11.677400 63.863598 18.564510
v -11.003600 63.752796 21.612610
v -10.932900 63.690395 22.202110
v -11.036700 63.564198 22.595610
v -11.377600 63.330296 22.928810
v -16.497400 61.986694 12.579210
v -20.333401 59.972694 12.981110
v -25.877701 56.737698 13.735310
v -31.456600 53.547195 14.602908
v -35.476898 51.209297 15.349408
v -39.473499 48.906796 16.143208
v -12.133600 63.955296 14.938411
v -12.576500 64.017403 10.405610
v -16.937599 62.202301 6.662110
v -20.753099 60.188400 6.879510
v -12.810900 64.058800 6.513011
v -26.346399 56.953400 7.153809
v -31.843399 53.872898 7.700309
v -35.953800 51.498299 8.152208
v -40.225899 48.906799 8.746907
v -36.262299 51.498299 2.427008
v -40.279598 48.906799 2.533008
v -32.007702 53.872898 2.231809
v -26.542601 56.953400 2.103209
v -20.966400 60.188400 1.823310
v -17.096300 62.202301 1.639410
v -12.964700 64.058800 1.569111
vt 0.000000 0.000000
vt 0.000000 0.000000
vt 0.000000 0.000000
vt 0.000000 0.000000
vt 0.000000 0.000000
vt 0.000000 0.000000
vt 0.000000 0.000000
vt 0.000000 0.000000
vt 0.000000 0.000000
vt 0.000000 0.000000
vt 0.000000 0.000000
vt 0.000000 0.000000
vt 0.000000 0.000000
vt 0.000000 0.000000
vt 0.000000 0.000000
vt 0.000000 0.000000
vt 0.000000 0.000000
vt 0.000000 0.000000
vt 0.000000 0.000000
vt 0.000000 0.000000
vt 0.000000 0.000000
vt 0.000000 0.000000
vt 0.000000 0.000000
vt 0.000000 0.000000
vt 0.000000 0.000000
vt 0.000000 0.000000
vt 0.000000 0.000000
vt 0.000000 0.000000
vt 0.000000 0.000000
vt 0.000000 0.000000
vt 0.000000 0.000000
vt 0.000000 0.000000
vt 0.000000 0.000000
vt 0.000000 0.000000
vt 0.000000 0.000000
vt 0.000000 0.000000
vt 0.000000 0.000000
vt 0.000000 0.000000
vt 0.000000 0.000000
vt 0.000000 0.000000
vt 0.000000 0.000000
vt 0.000000 0.000000
vt 0.000000 0.000000
vt 0.000000 0.000000
vt 0.000000 0.000000
vt 0.000000 0.000000
vt 0.000000 0.000000
vt 0.000000 0.000000
vt 0.000000 0.000000
vt 0.000000 0.000000
vt 0.000000 0.000000
vt 0.000000 0.000000
vt 0.000000 0.000000
vt 0.000000 0.000000
vt 0.000000 0.000000
vt 0.000000 0.000000
vt 0.000000 0.000000
vt 0.000000 0.000000
vt 0.000000 0.000000
vt 0.000000 0.000000
vt 0.000000 0.000000
vt 0.000000 0.000000
vt 0.000000 0.000000
vt 0.000000 0.000000
vt 0.000000 0.000000
vt 0.000000 0.000000
vt 0.000000 0.000000
vt 0.000000 0.000000
vt 0.000000 0.000000
vt 0.000000 0.000000
vt 0.000000 0.000000
vt 0.000000 0.000000
vt 0.000000 0.000000
vt 0.000000 0.000000
vt 0.000000 0.000000
vt 0.000000 0.000000
vt 0.000000 0.000000
vt 0.000000 0.000000
vt 0.000000 0.000000
vt 0.000000 0.000000
vt 0.000000 0.000000
vt 0.000000 0.000000
vt 0.000000 0.000000
vt 0.000000 0.000000
vn -0.4625 0.8805 -0.1040
vn -0.4626 0.8766 -0.1327
vn -0.5069 0.8510 -0.1374
vn -0.4959 0.8608 -0.1143
vn -0.5285 0.8346 -0.1550
vn -0.5038 0.8530 -0.1361
vn -0.5241 0.8274 -0.2018
vn -0.4996 0.8500 -0.1670
vn -0.5123 0.8242 -0.2414
vn -0.4713 0.8657 -0.1689
vn -0.4329 0.8712 -0.2316
vn -0.3663 0.9049 -0.2167
vn -0.3903 0.8976 -0.2049
vn -0.4700 0.8705 -0.1457
vn -0.4461 0.8887 -0.1056
vn -0.4375 0.8886 -0.1374
vn -0.4276 0.8899 -0.1589
vn -0.4154 0.8898 -0.1890
vn -0.4008 0.8874 -0.2278
vn -0.4565 0.8869 -0.0709
vn -0.4872 0.8697 -0.0793
vn -0.4982 0.8627 -0.0870
vn -0.4959 0.8635 -0.0922
vn -0.4926 0.8649 -0.0968
vn -0.4969 0.8631 -0.0906
vn -0.4485 0.8910 -0.0707
vn -0.4348 0.8989 -0.0539
vn -0.4483 0.8931 -0.0363
vn -0.4899 0.8708 -0.0422
vn -0.4176 0.9083 -0.0240
vn -0.5016 0.8641 -0.0426
vn -0.5000 0.8650 -0.0426
vn -0.5107 0.8586 -0.0441
vn -0.5288 0.8480 -0.0362
vn -0.5212 0.8534 -0.0104
vn -0.5512 0.8344 -0.0024
vn -0.4991 0.8665 -0.0091
vn -0.5046 0.8633 -0.0094
vn -0.4903 0.8715 -0.0101
vn -0.4449 0.8955 -0.0076
vn -0.4180 0.9084 -0.0065
vn -0.5069 0.8510 0.1375
vn -0.4626 0.8766 0.1327
vn -0.4625 0.8805 0.1040
vn -0.4959 0.8608 0.1143
vn -0.5285 0.8346 0.1550
vn -0.5038 0.8530 0.1361
vn -0.5241 0.8274 0.2018
vn -0.4996 0.8500 0.1670
vn -0.5123 0.8242 0.2414
vn -0.4713 0.8657 0.1689
vn -0.4329 0.8712 0.2316
vn -0.3663 0.9049 0.2167
vn -0.3903 0.8976 0.2049
vn -0.4700 0.8705 0.1456
vn -0.4461 0.8887 0.1056
vn -0.4375 0.8886 0.1374
vn -0.4276 0.8899 0.1589
vn -0.4154 0.8898 0.1890
vn -0.4008 0.8874 0.2278
vn -0.4565 0.8869 0.0709
vn -0.4872 0.8697 0.0793
vn -0.4982 0.8627 0.0870
vn -0.4959 0.8635 0.0922
vn -0.4926 0.8649 0.0968
vn -0.4969 0.8630 0.0906
vn -0.4485 0.8910 0.0707
vn -0.4348 0.8989 0.0539
vn -0.4483 0.8931 0.0363
vn -0.4899 0.8708 0.0422
vn -0.4176 0.9083 0.0240
vn -0.5016 0.8641 0.0426
vn -0.5000 0.8650 0.0426
vn -0.5107 0.8586 0.0441
vn -0.5288 0.8480 0.0362
vn -0.5212 0.8534 0.0104
vn -0.5512 0.8344 0.0024
vn -0.4991 0.8665 0.0091
vn -0.5046 0.8633 0.0094
vn -0.4903 0.8715 0.0101
vn -0.4449 0.8955 0.0076
vn -0.4180 0.9084 0.0065
usemtl wire_177028149
s 1
f 1/1/1 2/2/2 3/3/3
f 1/1/1 3/3/3 4/4/4
f 4/4/4 3/3/3 5/5/5
f 4/4/4 5/5/5 6/6/6
f 6/6/6 5/5/5 7/7/7
f 6/6/6 7/7/7 8/8/8
f 8/8/8 7/7/7 9/9/9
f 8/8/8 9/9/9 10/10/10
f 10/10/10 9/9/9 11/11/11
f 10/10/10 11/11/11 12/12/12
f 10/10/10 12/12/12 13/13/12
f 10/10/10 13/13/12 14/14/13
f 10/10/10 14/14/13 15/15/14
f 16/16/15 2/2/2 1/1/1
f 16/16/15 17/17/16 2/2/2
f 17/17/16 18/18/17 2/2/2
f 18/18/17 19/19/18 2/2/2
f 19/19/18 20/20/19 2/2/2
f 21/21/20 1/1/1 4/4/4
f 21/21/20 4/4/4 22/22/21
f 22/22/21 4/4/4 6/6/6
f 22/22/21 6/6/6 23/23/22
f 23/23/22 6/6/6 8/8/8
f 23/23/22 8/8/8 24/24/23
f 24/24/23 8/8/8 10/10/10
f 24/24/23 10/10/10 25/25/24
f 25/25/24 10/10/10 15/15/14
f 25/25/24 15/15/14 26/26/25
f 21/21/20 27/27/26 1/1/1
f 28/28/27 27/27/26 21/21/20
f 27/27/26 16/16/15 1/1/1
f 29/29/28 21/21/20 22/22/21
f 29/29/28 22/22/21 30/30/29
f 29/29/28 28/28/27 21/21/20
f 31/31/30 28/28/27 29/29/28
f 30/30/29 22/22/21 23/23/22
f 30/30/29 23/23/22 32/32/31
f 32/32/31 23/23/22 24/24/23
f 32/32/31 24/24/23 33/33/32
f 33/33/32 24/24/23 25/25/24
f 33/33/32 25/25/24 34/34/33
f 34/34/33 25/25/24 26/26/25
f 34/34/33 26/26/25 35/35/34
f 36/36/35 34/34/33 35/35/34
f 36/36/35 35/35/34 37/37/36
f 38/38/37 34/34/33 36/36/35
f 38/38/37 33/33/32 34/34/33
f 39/39/38 33/33/32 38/38/37
f 39/39/38 32/32/31 33/33/32
f 40/40/39 32/32/31 39/39/38
f 40/40/39 30/30/29 32/32/31
f 41/41/40 30/30/29 40/40/39
f 41/41/40 29/29/28 30/30/29
f 42/42/41 29/29/28 41/41/40
f 42/42/41 31/31/30 29/29/28
f 43/43/42 44/44/43 45/45/44
f 43/43/42 45/45/44 46/46/45
f 47/47/46 43/43/42 46/46/45
f 47/47/46 46/46/45 48/48/47
f 49/49/48 47/47/46 48/48/47
f 49/49/48 48/48/47 50/50/49
f 51/51/50 49/49/48 50/50/49
f 51/51/50 50/50/49 52/52/51
f 53/53/52 51/51/50 52/52/51
f 53/53/52 52/52/51 54/54/53
f 54/54/53 52/52/51 55/55/53
f 55/55/53 52/52/51 56/56/54
f 56/56/54 52/52/51 57/57/55
f 44/44/43 58/58/56 45/45/44
f 44/44/43 59/59/57 58/58/56
f 44/44/43 60/60/58 59/59/57
f 44/44/43 61/61/59 60/60/58
f 44/44/43 62/62/60 61/61/59
f 46/46/45 45/45/44 63/63/61
f 46/46/45 63/63/61 64/64/62
f 48/48/47 46/46/45 64/64/62
f 48/48/47 64/64/62 65/65/63
f 50/50/49 48/48/47 65/65/63
f 50/50/49 65/65/63 66/66/64
f 52/52/51 50/50/49 66/66/64
f 52/52/51 66/66/64 67/67/65
f 57/57/55 52/52/51 67/67/65
f 57/57/55 67/67/65 68/68/66
f 45/45/44 69/69/67 63/63/61
f 69/69/67 70/70/68 63/63/61
f 45/45/44 58/58/56 69/69/67
f 64/64/62 63/63/61 71/71/69
f 64/64/62 71/71/69 72/72/70
f 63/63/61 70/70/68 71/71/69
f 70/70/68 73/73/71 71/71/69
f 65/65/63 64/64/62 72/72/70
f 65/65/63 72/72/70 74/74/72
f 66/66/64 65/65/63 74/74/72
f 66/66/64 74/74/72 75/75/73
f 67/67/65 66/66/64 75/75/73
f 67/67/65 75/75/73 76/76/74
f 68/68/66 67/67/65 76/76/74
f 68/68/66 76/76/74 77/77/75
f 77/77/75 76/76/74 78/78/76
f 77/77/75 78/78/76 79/79/77
f 76/76/74 80/80/78 78/78/76
f 76/76/74 75/75/73 80/80/78
f 75/75/73 81/81/79 80/80/78
f 75/75/73 74/74/72 81/81/79
f 74/74/72 82/82/80 81/81/79
f 74/74/72 72/72/70 82/82/80
f 72/72/70 83/83/81 82/82/80
f 72/72/70 71/71/69 83/83/81
f 71/71/69 84/84/82 83/83/81
f 71/71/69 73/73/71 84/84/82
f 84/84/82 42/42/41 41/41/40
f 83/83/81 84/84/82 41/41/40
f 83/83/81 41/41/40 40/40/39
f 82/82/80 83/83/81 40/40/39
f 82/82/80 40/40/39 39/39/38
f 81/81/79 82/82/80 39/39/38
f 81/81/79 39/39/38 38/38/37
f 80/80/78 81/81/79 38/38/37
f 80/80/78 38/38/37 36/36/35
f 78/78/76 80/80/78 36/36/35
f 78/78/76 36/36/35 37/37/36
f 79/79/77 78/78/76 37/37/36
