# Blender v2.79 (sub 0) OBJ File: ''
# www.blender.org
mtllib blender_scriptD_1_001.mtl
o D_1_001
v -91.537598 22.971203 -9.366296
v -91.537598 21.958601 -9.539496
v -91.537598 23.139702 -9.539496
v -91.537598 23.139702 -9.139196
v -91.537598 22.971203 -9.158896
v -91.537598 22.966202 -9.096596
v -91.537598 23.126602 -9.030296
v -91.537598 22.947903 -9.041796
v -91.537598 22.916302 -8.994496
v -91.537598 23.089003 -8.935896
v -91.537598 22.871403 -8.954597
v -91.537598 22.823702 -8.925797
v -91.537598 23.027002 -8.856096
v -91.537598 22.763401 -8.909896
v -91.537598 22.542603 -8.902796
v -91.537598 22.078503 -8.853996
v -91.537598 22.326702 -8.909896
v -91.537598 22.273302 -8.922997
v -91.537598 22.016901 -8.933597
v -91.537598 22.230103 -8.946796
v -91.537598 22.185001 -8.984797
v -91.537598 21.973103 -9.032296
v -91.537598 22.152802 -9.032796
v -91.537598 22.133402 -9.090796
v -91.537598 21.958601 -9.150996
v -91.537598 22.127003 -9.158896
v -91.537598 22.127003 -9.366296
v -91.537598 22.940401 -8.790696
v -91.537598 22.154602 -8.793896
v -91.537598 22.215403 -8.761796
v -91.537598 22.872301 -8.756796
v -91.537598 22.283401 -8.742896
v -91.537598 22.801003 -8.738196
v -91.537598 22.387503 -8.732896
v -91.537598 22.549103 -8.729596
v -91.557198 22.127003 -9.366296
v -91.557198 23.139702 -9.539496
v -91.557198 21.958601 -9.539496
v -91.557198 21.958601 -9.150996
v -91.557198 22.127003 -9.158896
v -91.557198 22.133402 -9.090796
v -91.557198 21.973103 -9.032296
v -91.557198 22.152802 -9.032796
v -91.557198 22.185001 -8.984797
v -91.557198 22.016901 -8.933597
v -91.557198 22.230103 -8.946796
v -91.557198 22.273302 -8.922997
v -91.557198 22.078503 -8.853996
v -91.557198 22.326702 -8.909896
v -91.557198 22.542603 -8.902796
v -91.557198 23.027002 -8.856096
v -91.557198 22.940401 -8.790696
v -91.557198 22.154602 -8.793896
v -91.557198 22.215403 -8.761796
v -91.557198 22.872301 -8.756796
v -91.557198 22.283401 -8.742896
v -91.557198 22.801003 -8.738196
v -91.557198 22.387503 -8.732896
v -91.557198 22.549103 -8.729596
v -91.557198 22.763401 -8.909896
v -91.557198 22.823702 -8.925797
v -91.557198 23.089003 -8.935896
v -91.557198 22.871403 -8.954597
v -91.557198 22.916302 -8.994496
v -91.557198 23.126602 -9.030296
v -91.557198 22.947903 -9.041796
v -91.557198 22.966202 -9.096596
v -91.557198 23.139702 -9.139196
v -91.557198 22.971203 -9.158896
v -91.557198 22.971203 -9.366296
vt 0.000000 0.000000
vt 0.000000 0.000000
vt 0.000000 0.000000
vt 0.000000 0.000000
vt 0.000000 0.000000
vt 0.000000 0.000000
vt 0.000000 0.000000
vt 0.000000 0.000000
vt 0.000000 0.000000
vt 0.000000 0.000000
vt 0.000000 0.000000
vt 0.000000 0.000000
vt 0.000000 0.000000
vt 0.000000 0.000000
vt 0.000000 0.000000
vt 0.000000 0.000000
vt 0.000000 0.000000
vt 0.000000 0.000000
vt 0.000000 0.000000
vt 0.000000 0.000000
vt 0.000000 0.000000
vt 0.000000 0.000000
vt 0.000000 0.000000
vt 0.000000 0.000000
vt 0.000000 0.000000
vt 0.000000 0.000000
vt 0.000000 0.000000
vt 0.000000 0.000000
vt 0.000000 0.000000
vt 0.000000 0.000000
vt 0.000000 0.000000
vt 0.000000 0.000000
vt 0.000000 0.000000
vt 0.000000 0.000000
vt 0.000000 0.000000
vt 0.000000 0.000000
vt 0.000000 0.000000
vt 0.000000 0.000000
vt 0.000000 0.000000
vt 0.000000 0.000000
vt 0.000000 0.000000
vt 0.000000 0.000000
vt 0.000000 0.000000
vt 0.000000 0.000000
vt 0.000000 0.000000
vt 0.000000 0.000000
vt 0.000000 0.000000
vt 0.000000 0.000000
vt 0.000000 0.000000
vt 0.000000 0.000000
vt 0.000000 0.000000
vt 0.000000 0.000000
vt 0.000000 0.000000
vt 0.000000 0.000000
vt 0.000000 0.000000
vt 0.000000 0.000000
vt 0.000000 0.000000
vt 0.000000 0.000000
vt 0.000000 0.000000
vt 0.000000 0.000000
vt 0.000000 0.000000
vt 0.000000 0.000000
vt 0.000000 0.000000
vt 0.000000 0.000000
vt 0.000000 0.000000
vt 0.000000 0.000000
vt 0.000000 0.000000
vt 0.000000 0.000000
vt 0.000000 0.000000
vt 0.000000 0.000000
vn 1.0000 0.0000 0.0000
vn 1.0000 -0.0001 0.0000
vn -1.0000 0.0000 0.0000
vn -1.0000 -0.0001 0.0000
vn 0.0000 -1.0000 0.0000
vn 0.0000 -0.9981 0.0613
vn 0.0000 0.0000 -1.0000
vn 0.0000 0.9982 0.0598
vn 0.0000 1.0000 0.0000
vn 0.0000 0.9692 0.2463
vn 0.0000 0.8679 0.4967
vn 0.0000 0.7022 0.7120
vn 0.0000 0.5264 0.8502
vn 0.0000 0.3514 0.9362
vn 0.0000 0.1441 0.9896
vn 0.0000 0.0069 1.0000
vn 0.0000 -0.0581 0.9983
vn 0.0000 -0.1819 0.9833
vn 0.0000 -0.3695 0.9292
vn 0.0000 -0.5456 0.8381
vn 0.0000 -0.7106 0.7036
vn 0.0000 -0.8590 0.5120
vn 0.0000 -0.9639 0.2663
vn 0.0000 -0.9992 -0.0400
vn 0.0000 0.0000 1.0000
vn 0.0000 0.9989 -0.0468
vn 0.0000 0.9784 -0.2067
vn -0.0000 0.8976 -0.4408
vn 0.0000 0.7447 -0.6674
vn -0.0000 0.5659 -0.8245
vn 0.0000 0.3636 -0.9316
vn 0.0000 0.1367 -0.9906
vn 0.0000 -0.1445 -0.9895
vn -0.0000 -0.3903 -0.9207
vn -0.0000 -0.5933 -0.8050
vn 0.0000 -0.7541 -0.6568
vn 0.0000 -0.8980 -0.4400
vn 0.0000 -0.9798 -0.1999
usemtl wire_224198087
s 1
f 1/1/1 2/2/1 3/3/1 4/4/1
f 5/5/1 1/1/1 4/4/1 6/6/1
f 6/6/1 4/4/1 7/7/1 8/8/1
f 9/9/1 8/8/1 7/7/1 10/10/1
f 11/11/1 9/9/1 10/10/1 12/12/1
f 12/12/1 10/10/1 13/13/1 14/14/1
f 15/15/1 14/14/1 13/13/1 16/16/1
f 17/17/1 15/15/1 16/16/1 18/18/1
f 18/18/1 16/16/1 19/19/1 20/20/1
f 21/21/1 20/20/1 19/19/1 22/22/1
f 23/23/1 21/21/1 22/22/1 24/24/1
f 24/24/1 22/22/1 25/25/2 26/26/2
f 27/27/1 26/26/2 25/25/2 2/2/1
f 27/27/1 2/2/1 1/1/1
f 16/16/1 13/13/1 28/28/1 29/29/1
f 30/30/1 29/29/1 28/28/1 31/31/1
f 32/32/1 30/30/1 31/31/1 33/33/1
f 34/34/1 32/32/1 33/33/1 35/35/1
f 36/36/3 37/37/3 38/38/3 39/39/3
f 40/40/3 36/36/3 39/39/3 41/41/3
f 41/41/3 39/39/3 42/42/3 43/43/3
f 44/44/3 43/43/3 42/42/3 45/45/3
f 46/46/3 44/44/3 45/45/3 47/47/3
f 47/47/3 45/45/3 48/48/3 49/49/3
f 50/50/3 49/49/3 48/48/3 51/51/3
f 52/52/3 51/51/3 48/48/3 53/53/3
f 52/52/3 53/53/3 54/54/3 55/55/3
f 55/55/3 54/54/3 56/56/3 57/57/3
f 57/57/3 56/56/3 58/58/3 59/59/3
f 60/60/3 50/50/3 51/51/3 61/61/3
f 61/61/3 51/51/3 62/62/3 63/63/3
f 64/64/3 63/63/3 62/62/3 65/65/3
f 66/66/4 64/64/3 65/65/3 67/67/3
f 67/67/3 65/65/3 68/68/3 69/69/3
f 70/70/3 69/69/3 68/68/3 37/37/3
f 70/70/3 37/37/3 36/36/3
f 2/2/5 25/25/6 39/39/6 38/38/5
f 2/2/7 38/38/7 37/37/7 3/3/7
f 4/4/8 3/3/9 37/37/9 68/68/8
f 7/7/10 4/4/8 68/68/8 65/65/10
f 10/10/11 7/7/10 65/65/10 62/62/11
f 13/13/12 10/10/11 62/62/11 51/51/12
f 52/52/13 28/28/13 13/13/12 51/51/12
f 55/55/14 31/31/14 28/28/13 52/52/13
f 57/57/15 33/33/15 31/31/14 55/55/14
f 59/59/16 35/35/16 33/33/15 57/57/15
f 58/58/17 34/34/17 35/35/16 59/59/16
f 56/56/18 32/32/18 34/34/17 58/58/17
f 54/54/19 30/30/19 32/32/18 56/56/18
f 53/53/20 29/29/20 30/30/19 54/54/19
f 48/48/21 16/16/21 29/29/20 53/53/20
f 19/19/22 16/16/21 48/48/21 45/45/22
f 22/22/23 19/19/22 45/45/22 42/42/23
f 25/25/6 22/22/23 42/42/23 39/39/6
f 1/1/5 5/5/24 69/69/24 70/70/5
f 36/36/25 27/27/25 1/1/25 70/70/25
f 26/26/26 27/27/9 36/36/9 40/40/26
f 24/24/27 26/26/26 40/40/26 41/41/27
f 23/23/28 24/24/27 41/41/27 43/43/28
f 21/21/29 23/23/28 43/43/28 44/44/29
f 21/21/29 44/44/29 46/46/30 20/20/30
f 20/20/30 46/46/30 47/47/31 18/18/31
f 18/18/31 47/47/31 49/49/32 17/17/32
f 17/17/32 49/49/32 50/50/7 15/15/7
f 15/15/7 50/50/7 60/60/33 14/14/33
f 14/14/33 60/60/33 61/61/34 12/12/34
f 12/12/34 61/61/34 63/63/35 11/11/35
f 11/11/35 63/63/35 64/64/36 9/9/36
f 8/8/37 9/9/36 64/64/36 66/66/37
f 6/6/38 8/8/37 66/66/37 67/67/38
f 5/5/24 6/6/38 67/67/38 69/69/24
